<svg xmlns="http://www.w3.org/2000/svg" width="511.967" height="550.095" viewBox="0 0 511.967 550.095">
  <g id="Grupo_19249" data-name="Grupo 19249" transform="translate(-55.153 -156.508)">
    <g id="Grupo_19317" data-name="Grupo 19317" transform="matrix(0.891, -0.454, 0.454, 0.891, 207.213, 198.723)">
      <path id="Trazado_283" data-name="Trazado 283" d="M104.307,52.153A52.153,52.153,0,1,1,52.153,0a52.153,52.153,0,0,1,52.153,52.153" transform="translate(0 19.461)" fill="#ef6800" opacity="0.25"/>
      <path id="Trazado_284" data-name="Trazado 284" d="M.1,30.163l4.083,65.43a19.191,19.191,0,0,0,38.343-1.344c-.062-7.995-.147-15.365-.147-15.365s15.034-2.339,15.22-17.37c.089-7.125-.9-21.669-1.972-35A28.831,28.831,0,0,0,26.886,0H26.2A27.821,27.821,0,0,0,.1,30.163" transform="translate(25.949 5.573)" fill="#eb996e"/>
      <path id="Trazado_285" data-name="Trazado 285" d="M19.6,5.57A34.959,34.959,0,0,1,0,0S4.631,10.819,19.631,9.464Z" transform="translate(48.761 78.668)" fill="#d1734a"/>
      <path id="Trazado_286" data-name="Trazado 286" d="M8.485,2.256c-.265.28-1.892-.924-4.2-.917C1.976,1.311.279,2.5.029,2.218c-.123-.125.149-.632.886-1.168A5.875,5.875,0,0,1,4.32,0,5.661,5.661,0,0,1,7.666,1.079c.71.545.95,1.052.819,1.177" transform="translate(69.574 39.459)" fill="#263238"/>
      <path id="Trazado_287" data-name="Trazado 287" d="M8.485,2.256c-.267.28-1.894-.923-4.2-.917C1.974,1.311.279,2.5.029,2.218c-.123-.125.145-.63.886-1.168A5.874,5.874,0,0,1,4.321,0,5.666,5.666,0,0,1,7.666,1.079c.708.545.95,1.052.819,1.177" transform="translate(47.098 39.459)" fill="#263238"/>
      <path id="Trazado_288" data-name="Trazado 288" d="M1.082,19.247a15.334,15.334,0,0,1,3.752-.677c.59-.06,1.148-.178,1.248-.581a3.015,3.015,0,0,0-.394-1.747Q4.854,14.1,3.943,11.75C1.522,5.355-.233.1.025,0S2.457,5.012,4.88,11.407q.875,2.365,1.671,4.519a3.423,3.423,0,0,1,.307,2.316,1.485,1.485,0,0,1-.972.863,3.973,3.973,0,0,1-1,.138,15.006,15.006,0,0,1-3.8.005" transform="translate(62.883 36.999)" fill="#263238"/>
      <path id="Trazado_289" data-name="Trazado 289" d="M10.542,1.732c-.229.628-2.534.331-5.243.657C2.58,2.662.4,3.455.036,2.891c-.16-.269.222-.859,1.1-1.467A8.8,8.8,0,0,1,5.041.057a8.755,8.755,0,0,1,4.1.483c1,.4,1.5.894,1.4,1.191" transform="translate(45.636 28.33)" fill="#263238"/>
      <path id="Trazado_290" data-name="Trazado 290" d="M7.866,2.393c-.407.525-2-.02-3.912-.045C2.042,2.255.422,2.7.048,2.151c-.163-.267.093-.792.8-1.289A5.412,5.412,0,0,1,4.027,0a5.419,5.419,0,0,1,3.12,1.053c.676.539.9,1.081.719,1.337" transform="translate(69.573 29.605)" fill="#263238"/>
      <path id="Trazado_291" data-name="Trazado 291" d="M19.729,9.114l-.082.065a11.825,11.825,0,0,0-4.4,7.646c-.016.107-.029.207-.042.3-.588,4.288-.481,8.649-1.112,12.931S11.985,38.7,8.819,41.647c-1.3,1.213-3.605,2.049-4.675.627a3.668,3.668,0,0,1-.536-1.965C2.808,29.956-.02,20.772,0,9.946A9.117,9.117,0,0,1,3.787,2.519C6.053.894,8.821-.79,11.338.4s5.783,5.908,7.735,7.908" transform="translate(22.645 10.138)" fill="#263238"/>
      <path id="Trazado_292" data-name="Trazado 292" d="M10.008.473C9.752.363-.321-2.581.008,7.695s10.577,7.828,10.587,7.534S10.008.473,10.008.473" transform="translate(21.115 42.064)" fill="#eb996e"/>
      <path id="Trazado_293" data-name="Trazado 293" d="M4.713,8.07c-.045-.031-.176.131-.474.28A1.793,1.793,0,0,1,2.9,8.42C1.8,8.055.836,6.36.727,4.51a5.926,5.926,0,0,1,.418-2.579A2.07,2.07,0,0,1,2.449.514.91.91,0,0,1,3.52.97c.147.283.089.49.143.507.029.024.214-.18.118-.6a1.137,1.137,0,0,0-.425-.63,1.354,1.354,0,0,0-1-.231A2.514,2.514,0,0,0,.54,1.667,6.083,6.083,0,0,0,.011,4.552C.142,6.62,1.264,8.525,2.765,8.907a1.923,1.923,0,0,0,1.627-.323c.311-.265.358-.5.321-.514" transform="translate(23.731 45.429)" fill="#d1734a"/>
      <path id="Trazado_294" data-name="Trazado 294" d="M.538,12.131C-1.992,8.019,4.941,2.116,10.013.516s11.753.874,16.8,2.548c3.186,1.057,6.36,2.53,9.711,2.392A22.673,22.673,0,0,0,43.04,3.8a16.622,16.622,0,0,1,6.573-1.3,6.2,6.2,0,0,1,5.409,3.431c.852,2.081-.369,4.935-2.6,5.245a5.3,5.3,0,0,1,7.421,3.7,5.3,5.3,0,0,1-6.075,5.648c1.462-1.106,3.7.723,3.522,2.548s-1.834,3.151-3.514,3.888c-4.284,1.883-9.283,1.282-13.718-.211S31.51,22.931,27.113,21.33s-11.763-4.481-16.177-2.924c-3.251,1.146-5.512,5.062-7.346,4.2A6.282,6.282,0,0,1,.337,17.981a18.21,18.21,0,0,1,.2-5.85" transform="translate(33.099 0)" fill="#263238"/>
      <path id="Trazado_295" data-name="Trazado 295" d="M50.811,8.021c-.085-.051-.53.761-1.633,1.96a14.189,14.189,0,0,1-5.71,3.676,13.033,13.033,0,0,1-9.8-.4c-3.5-1.566-6.486-4.7-9.929-7.652C20.305,2.631,16.25.428,12.187.061a11.846,11.846,0,0,0-9.827,3.4,8.972,8.972,0,0,0-2.33,6.642A6.934,6.934,0,0,0,.472,12c.185.4.3.6.332.588a16.69,16.69,0,0,1-.381-2.5A8.841,8.841,0,0,1,2.884,3.955,11.23,11.23,0,0,1,12.1.992c3.79.392,7.633,2.485,10.986,5.392,3.378,2.886,6.462,6.1,10.2,7.73a13.568,13.568,0,0,0,10.428.216,13.67,13.67,0,0,0,5.765-4.09,9.709,9.709,0,0,0,1.072-1.6c.2-.389.294-.6.263-.617" transform="translate(35.954 2.869)" fill="#455a64"/>
      <path id="Trazado_296" data-name="Trazado 296" d="M3.259,26.75c.038.035.443-.283.832-1.1A6.937,6.937,0,0,0,4.6,21.927c-.229-3.311-3.157-6.865-3.529-11.438A10.332,10.332,0,0,1,2.213,4.353a7.851,7.851,0,0,1,3.819-3.3A6.7,6.7,0,0,1,9.463.586c.825.133,1.269.325,1.308.243C10.795.788,10.406.467,9.545.2a6.39,6.39,0,0,0-3.763.18,8.279,8.279,0,0,0-4.375,3.5A10.894,10.894,0,0,0,.065,10.583a18.711,18.711,0,0,0,1.981,6.478,19.492,19.492,0,0,1,1.845,4.964,7.916,7.916,0,0,1-.632,4.726" transform="translate(25.245 15.339)" fill="#455a64"/>
      <path id="Trazado_297" data-name="Trazado 297" d="M0,0A10.045,10.045,0,0,0,3.191,5.928a6.33,6.33,0,0,0,6.418,1.15c1.834-.806,3.031-2.568,4.13-4.243Z" transform="translate(56.174 59.069)" fill="#fff"/>
    </g>
    <g id="Grupo_19318" data-name="Grupo 19318" transform="translate(361.845 265.439) rotate(21)">
      <path id="Trazado_307" data-name="Trazado 307" d="M86.465,45.9c0,25.352-19.355,45.905-43.232,45.905S0,71.256,0,45.9,19.356,0,43.232,0,86.465,20.553,86.465,45.9" transform="translate(7.477 0)" fill="#ef6800" opacity="0.25"/>
      <path id="Trazado_308" data-name="Trazado 308" d="M40.267,31.706c-1.255-1-3.031-1.141-4.315-2.107-2.642-1.992-1.883-6.038-2.451-9.3-.62-3.55-3.033-6.468-4.948-9.52S24.423,3.312,25.84,0L0,47.373H40.524s1.234-7.453,1.45-9.627,0-4.674-1.707-6.04" transform="translate(50.71 32.401)" fill="#263238"/>
      <path id="Trazado_309" data-name="Trazado 309" d="M0,8.743C1.249,4.931,5.408,2.776,9.39,2.3s5.937,1.148,9.85.267C24.618,1.355,27.748-.469,31.3.111c3.21.523,7.288,1.525,10.186,4.88,2.125,2.46,2.2,8.223,1.316,11.352-.807,2.858-3.029,5.194-3.624,8.1-.552,2.7.371,5.442.967,8.127,1.789,8.066.4,17.1-4.943,23.4s-14.971,9.085-22.355,5.379" transform="translate(37.283 8.321)" fill="#263238"/>
      <path id="Trazado_310" data-name="Trazado 310" d="M33.959,76.563l-.217-11.788s11.711-1.731,14.4-16.924c1.338-7.555,1.177-19.984.718-30.151C48.448,8.55,38.761-.753,29.638.048L0,5.143l.01,4.919.818,67.01a16.567,16.567,0,1,0,33.131-.508" transform="translate(27.258 18.867)" fill="#a36957"/>
      <path id="Trazado_311" data-name="Trazado 311" d="M3.9,1.8a1.954,1.954,0,0,1-1.92,1.938A1.868,1.868,0,0,1,0,1.94,1.955,1.955,0,0,1,1.917,0,1.87,1.87,0,0,1,3.9,1.8" transform="translate(66.489 44.035)" fill="#263238"/>
      <path id="Trazado_312" data-name="Trazado 312" d="M7.72,2.123c-.246.251-1.707-.871-3.811-.9C1.81,1.157.249,2.212.025,1.95-.085,1.835.169,1.379.85.9A5.367,5.367,0,0,1,3.967,0,5.141,5.141,0,0,1,6.993,1.039c.638.507.849.972.727,1.084" transform="translate(64.854 40.859)" fill="#263238"/>
      <path id="Trazado_313" data-name="Trazado 313" d="M3.9,1.8a1.954,1.954,0,0,1-1.92,1.938A1.869,1.869,0,0,1,0,1.941,1.956,1.956,0,0,1,1.917,0,1.869,1.869,0,0,1,3.9,1.8" transform="translate(47.336 43.682)" fill="#263238"/>
      <path id="Trazado_314" data-name="Trazado 314" d="M7.721,2.123c-.248.251-1.71-.871-3.811-.9-2.1-.062-3.662.993-3.886.731C-.084,1.835.168,1.379.851.9A5.365,5.365,0,0,1,3.966,0,5.15,5.15,0,0,1,6.994,1.039c.636.507.849.972.727,1.084" transform="translate(45.4 40.884)" fill="#263238"/>
      <path id="Trazado_315" data-name="Trazado 315" d="M.675,17.536A13.937,13.937,0,0,1,4.1,16.981c.537-.046,1.049-.144,1.145-.508a2.724,2.724,0,0,0-.329-1.6L3.4,10.758C1.3,4.9-.212.083.024,0s2.133,4.6,4.235,10.46q.758,2.168,1.447,4.14a3.1,3.1,0,0,1,.241,2.112,1.352,1.352,0,0,1-.9.771,3.7,3.7,0,0,1-.914.11,13.643,13.643,0,0,1-3.461-.058" transform="translate(59.019 41.199)" fill="#263238"/>
      <path id="Trazado_316" data-name="Trazado 316" d="M20.307,5.806A38.768,38.768,0,0,1,0,0S4.764,10.554,20.037,9.4Z" transform="translate(41.008 77.836)" fill="#7c3b29"/>
      <path id="Trazado_317" data-name="Trazado 317" d="M6.3,1.483A3.788,3.788,0,0,0,2.925.015,3.454,3.454,0,0,0,.514,1.254,2.188,2.188,0,0,0,.3,3.758,2.543,2.543,0,0,0,3.046,4.5,7.965,7.965,0,0,0,5.762,2.947a2.366,2.366,0,0,0,.612-.611.706.706,0,0,0,.01-.783" transform="translate(52.785 62.304)" fill="#7c3b29"/>
      <path id="Trazado_318" data-name="Trazado 318" d="M.362,0C.7-.014.667,2.269,2.593,3.923S6.951,5.37,6.964,5.69c.029.144-.55.433-1.578.443A5.688,5.688,0,0,1,1.735,4.788,4.952,4.952,0,0,1,.012,1.5C-.059.545.205-.016.362,0" transform="translate(53.426 60.079)" fill="#263238"/>
      <path id="Trazado_319" data-name="Trazado 319" d="M9.612,1.65c-.217.568-2.312.259-4.785.513-2.476.2-4.479.89-4.8.372-.141-.248.216-.78,1.029-1.319A7.992,7.992,0,0,1,4.631.037,7.989,7.989,0,0,1,8.359.542c.9.38,1.348.838,1.253,1.108" transform="translate(44.213 33.126)" fill="#263238"/>
      <path id="Trazado_320" data-name="Trazado 320" d="M7.152,2.244c-.379.472-1.818-.051-3.56-.1C1.853,2.024.371,2.4.04,1.9-.1,1.653.136,1.178.788.738A4.922,4.922,0,0,1,3.7.006a4.927,4.927,0,0,1,2.823,1.01c.607.5.8,1,.633,1.228" transform="translate(64.787 34.639)" fill="#263238"/>
      <path id="Trazado_321" data-name="Trazado 321" d="M30.5.082a21.5,21.5,0,0,1,2.55,16.4A21.492,21.492,0,0,1,23.018,29.707c-1.7.97-3.619,1.79-4.652,3.448-1.312,2.107-.751,4.809-.508,7.278A25.4,25.4,0,0,1,12.02,59.111c-2.9-5.659-5.84-11.4-7.115-17.636-.646-3.149-.865-6.412-2.008-9.416C2.214,30.268,1.215,28.6.628,26.78a16.572,16.572,0,0,1,.449-10.3A24.337,24.337,0,0,1,31.77,1.212" transform="translate(16.228 11.506)" fill="#263238"/>
      <path id="Trazado_322" data-name="Trazado 322" d="M21.7,0c-6.858,10.036-3.519,16.571-6.179,21.712-1.929,3.726-6.409,5.215-9.588,7.951C1.61,33.388-.151,39.426.01,45.133s2,11.217,3.824,16.629l36.875.182c2.852-8.989-4.283-18.729-1.99-27.876.783-3.125,2.644-6,2.751-9.222.07-2.141-.649-4.217-1.124-6.3A28.46,28.46,0,0,1,42.056.834" transform="translate(0 22.152)" fill="#263238"/>
      <path id="Trazado_323" data-name="Trazado 323" d="M35.588,5.141c-.046.024-.251-.483-.842-1.244a8.611,8.611,0,0,0-3.2-2.439A12.891,12.891,0,0,0,25.669.385a26.007,26.007,0,0,0-7.2,1.661c-2.5.878-4.858,1.816-7.114,2.364a18.58,18.58,0,0,1-6.113.542A10.71,10.71,0,0,1,1.26,3.823a7.037,7.037,0,0,1-.956-.6A1.428,1.428,0,0,1,0,2.978c.027-.04.457.291,1.33.7a11.308,11.308,0,0,0,3.933.983,18.939,18.939,0,0,0,6-.622c2.214-.558,4.561-1.5,7.069-2.383A25.58,25.58,0,0,1,25.655.008,12.918,12.918,0,0,1,31.669,1.2,8.386,8.386,0,0,1,34.874,3.8a6.089,6.089,0,0,1,.568.975,1.421,1.421,0,0,1,.147.365" transform="translate(44.533 12.592)" fill="#455a64"/>
      <path id="Trazado_324" data-name="Trazado 324" d="M0,0A1.627,1.627,0,0,1,.35.239,2.814,2.814,0,0,1,.735.58a3.976,3.976,0,0,1,.472.52A8.563,8.563,0,0,1,2.841,5.22,19.834,19.834,0,0,1,3.063,8.29C3.068,9.4,3,10.568,3.028,11.8a16.169,16.169,0,0,0,.438,3.8A6.988,6.988,0,0,0,5.43,19.063a20.3,20.3,0,0,0,3.474,2.2A7.11,7.11,0,0,1,11.721,24a9.381,9.381,0,0,1,.673,6.513A21.46,21.46,0,0,1,10.9,34.7c-.219.476-.4.839-.524,1.085a1.611,1.611,0,0,1-.211.366,1.682,1.682,0,0,1,.136-.4c.121-.3.27-.667.452-1.116a24.02,24.02,0,0,0,1.36-4.18,10.764,10.764,0,0,0,.214-3,7.967,7.967,0,0,0-.935-3.272A6.747,6.747,0,0,0,8.7,21.608a19.973,19.973,0,0,1-3.546-2.244,7.332,7.332,0,0,1-2.077-3.672A16.21,16.21,0,0,1,2.65,11.8c-.016-1.244.062-2.42.072-3.51a20.365,20.365,0,0,0-.168-3.026A8.745,8.745,0,0,0,1.079,1.2,13.124,13.124,0,0,0,0,0" transform="translate(74.785 43.537)" fill="#455a64"/>
      <path id="Trazado_325" data-name="Trazado 325" d="M2.315,67.3a.826.826,0,0,1-.105-.19c-.064-.129-.16-.321-.27-.579a23.614,23.614,0,0,1-.881-2.3,21.668,21.668,0,0,1-.884-3.79,17.12,17.12,0,0,1,.043-5.159,13.991,13.991,0,0,1,2.34-5.793c1.316-1.882,3.336-3.288,5.3-4.828a16.885,16.885,0,0,0,2.764-2.628,8.839,8.839,0,0,0,1.69-3.53,19.608,19.608,0,0,0-.392-8.314,33.575,33.575,0,0,1-1.167-8.429,10.785,10.785,0,0,1,.892-3.984A10.234,10.234,0,0,1,13.932,14.6a19.675,19.675,0,0,1,6.124-3.739C22.131,10,24.1,9.321,25.832,8.541A18.364,18.364,0,0,0,30.2,5.928a11.506,11.506,0,0,0,2.531-2.874A8.313,8.313,0,0,0,33.691.828c.145-.539.182-.833.2-.828a4.689,4.689,0,0,1-.123.847,7.919,7.919,0,0,1-.908,2.288A11.464,11.464,0,0,1,30.345,6.1a18.368,18.368,0,0,1-4.393,2.7c-1.738.8-3.709,1.5-5.764,2.371a19.458,19.458,0,0,0-5.993,3.7A9.837,9.837,0,0,0,12,17.941a10.409,10.409,0,0,0-.85,3.841,33.486,33.486,0,0,0,1.169,8.327A19.9,19.9,0,0,1,12.7,38.6a9.226,9.226,0,0,1-1.774,3.68,17.191,17.191,0,0,1-2.836,2.681C6.1,46.508,4.118,47.879,2.833,49.694A13.784,13.784,0,0,0,.5,55.337a19.233,19.233,0,0,0,.71,8.851c.305,1.017.6,1.789.8,2.312.1.243.171.438.233.593a.838.838,0,0,1,.067.208" transform="translate(13.805 15.238)" fill="#455a64"/>
      <path id="Trazado_326" data-name="Trazado 326" d="M44.547.507A1.227,1.227,0,0,1,44.3.5l-.729-.07c-.641-.053-1.586-.145-2.806-.2a30.924,30.924,0,0,0-10.2,1.122,20.226,20.226,0,0,0-6.308,3.165,16.153,16.153,0,0,0-5.085,6.214,20.422,20.422,0,0,0-1.394,8.8c.027,3.127.3,6.425-.336,9.751a13.711,13.711,0,0,1-1.733,4.676,11.2,11.2,0,0,1-3.413,3.437c-2.65,1.758-5.547,2.817-7.745,4.66A11.871,11.871,0,0,0,.624,48.943a16.552,16.552,0,0,0,.157,7.026,23.811,23.811,0,0,0,2.088,5.467,39.292,39.292,0,0,0,2.289,3.8c.684,1.01,1.247,1.774,1.624,2.3l.432.591a1.3,1.3,0,0,1,.136.211,1.056,1.056,0,0,1-.169-.185l-.464-.568c-.4-.505-.983-1.255-1.69-2.254a37.091,37.091,0,0,1-2.361-3.789A23.672,23.672,0,0,1,.5,56.035,16.785,16.785,0,0,1,.29,48.877a12.2,12.2,0,0,1,4.016-7.112c2.259-1.9,5.176-2.975,7.761-4.7a10.849,10.849,0,0,0,3.291-3.319A13.364,13.364,0,0,0,17.036,29.2c.627-3.256.36-6.524.337-9.67a20.7,20.7,0,0,1,1.452-8.959,16.428,16.428,0,0,1,5.226-6.33,20.358,20.358,0,0,1,6.428-3.172,30.138,30.138,0,0,1,10.293-1c1.223.075,2.168.193,2.807.273l.724.11a1.177,1.177,0,0,1,.245.051" transform="translate(4.001 14.739)" fill="#455a64"/>
      <path id="Trazado_327" data-name="Trazado 327" d="M0,66.637a9.511,9.511,0,0,0,2.414-1.75A10.158,10.158,0,0,0,4.357,62a13.54,13.54,0,0,0,1.1-4.479A17.9,17.9,0,0,0,4.9,51.946a55.824,55.824,0,0,0-1.993-6.174A48.6,48.6,0,0,1,.767,38.881a16.991,16.991,0,0,1-.034-7.748A12.114,12.114,0,0,1,2.378,27.52a17.307,17.307,0,0,1,2.532-2.893c1.845-1.718,3.849-3.073,5.664-4.465a26.06,26.06,0,0,0,4.746-4.371,18.865,18.865,0,0,0,2.85-4.828,19.805,19.805,0,0,0,1.484-7.971c0-.483-.029-.911-.069-1.282s-.058-.684-.1-.937c-.03-.232-.054-.42-.075-.575A.742.742,0,0,1,19.4,0a14.088,14.088,0,0,1,.416,2.988,19.436,19.436,0,0,1-1.375,8.084A19,19,0,0,1,15.586,16,26.3,26.3,0,0,1,10.8,20.462c-1.818,1.405-3.811,2.764-5.621,4.457a16.952,16.952,0,0,0-2.467,2.828,11.715,11.715,0,0,0-1.587,3.49A16.66,16.66,0,0,0,1.16,38.8a49.214,49.214,0,0,0,2.1,6.845A54.944,54.944,0,0,1,5.23,51.868a18.062,18.062,0,0,1,.516,5.673,13.611,13.611,0,0,1-1.181,4.553A10.119,10.119,0,0,1,2.527,65,7.868,7.868,0,0,1,.719,66.329l-.531.24A.684.684,0,0,1,0,66.637" transform="translate(27.123 17.506)" fill="#455a64"/>
      <path id="Trazado_328" data-name="Trazado 328" d="M0,4.46c3.9,2.73,8.217,5.584,12.965,5.248,2.82-.2,5.416-1.52,8.1-2.407s5.8-1.3,8.2.185c1.555-.129,2.281-2.24,1.594-3.642a6.034,6.034,0,0,0-3.7-2.662C18.624-1.727,10.111,1.57.513,2.193" transform="translate(46.128 17.345)" fill="#263238"/>
      <path id="Trazado_329" data-name="Trazado 329" d="M33.755,6.166a4.4,4.4,0,0,0,.318-1.517,4.107,4.107,0,0,0-2-3.477A5.816,5.816,0,0,0,29.319.355,8.622,8.622,0,0,0,26.037.9c-2.262.759-4.4,2.383-7,3.48a17.251,17.251,0,0,1-3.926,1.153,18.2,18.2,0,0,1-3.8.277,18.446,18.446,0,0,1-6.3-1.252A16.593,16.593,0,0,1,1.212,2.492,11.3,11.3,0,0,1,.3,1.754c-.2-.176-.305-.273-.3-.285a21.7,21.7,0,0,0,5.12,2.814,18.79,18.79,0,0,0,6.2,1.145,18.036,18.036,0,0,0,3.72-.3A16.956,16.956,0,0,0,18.882,4c2.529-1.061,4.693-2.69,7.032-3.458A8.824,8.824,0,0,1,29.34.016a6.046,6.046,0,0,1,2.885.911,4.3,4.3,0,0,1,1.642,1.878,4.029,4.029,0,0,1,.364,1.846,3,3,0,0,1-.267,1.157,1.18,1.18,0,0,1-.209.356" transform="translate(46.007 18.139)" fill="#455a64"/>
    </g>
    <ellipse id="Elipse_4" data-name="Elipse 4" cx="180.677" cy="16.631" rx="180.677" ry="16.631" transform="translate(140.923 643.703)" fill="#f0f0f0"/>
    <g id="Grupo_19248" data-name="Grupo 19248" transform="translate(254.153 200.114) rotate(33)">
      <path id="Trazado_247" data-name="Trazado 247" d="M94.727,10.258,0,72.931,183.642,306.772l74.607-49.36,15.5-10.259L110.232,0Z" transform="translate(27.754 101.345)" fill="#f37548"/>
      <path id="Trazado_248" data-name="Trazado 248" d="M15.506,62.673,0,72.931,163.521,320.085l15.506-10.26,74.607-49.36L110.232,0Z" transform="translate(137.988 28.413)" fill="#f0531a"/>
      <rect id="Rectángulo_5467" data-name="Rectángulo 5467" width="302.544" height="30.855" transform="translate(0 166.937) rotate(-33.489)" fill="#f37548"/>
      <path id="Trazado_249" data-name="Trazado 249" d="M227.586,15.265,10.759,158.72,0,145.013,219.181,0Z" transform="translate(33.595 36.693)" fill="#b43e14"/>
      <rect id="Rectángulo_5468" data-name="Rectángulo 5468" width="12.422" height="127.004" transform="matrix(0.834, -0.552, 0.552, 0.834, 84.898, 197.7)" fill="#fff"/>
      <rect id="Rectángulo_5469" data-name="Rectángulo 5469" width="12.42" height="127.004" transform="matrix(0.834, -0.552, 0.552, 0.834, 110.044, 181.061)" fill="#fff"/>
      <rect id="Rectángulo_5470" data-name="Rectángulo 5470" width="12.417" height="127.004" transform="matrix(0.834, -0.552, 0.552, 0.834, 135.177, 164.434)" fill="#fff"/>
      <rect id="Rectángulo_5471" data-name="Rectángulo 5471" width="12.42" height="127.004" transform="translate(160.313 147.803) rotate(-33.485)" fill="#fff"/>
      <rect id="Rectángulo_5472" data-name="Rectángulo 5472" width="12.421" height="127.004" transform="matrix(0.834, -0.552, 0.552, 0.834, 185.452, 131.172)" fill="#fff"/>
      <rect id="Rectángulo_5473" data-name="Rectángulo 5473" width="12.417" height="127.004" transform="translate(210.596 114.535) rotate(-33.483)" fill="#fff"/>
      <rect id="Rectángulo_5474" data-name="Rectángulo 5474" width="12.417" height="127.003" transform="translate(235.731 97.905) rotate(-33.483)" fill="#fff"/>
    </g>
  </g>
</svg>
