<svg xmlns="http://www.w3.org/2000/svg" xmlns:xlink="http://www.w3.org/1999/xlink" width="435.495" height="521.901" viewBox="0 0 435.495 521.901">
  <defs>
    <clipPath id="clip-path">
      <rect id="Rectángulo_5617" data-name="Rectángulo 5617" width="435.495" height="496.211" fill="none"/>
    </clipPath>
    <clipPath id="clip-path-2">
      <rect id="Rectángulo_5618" data-name="Rectángulo 5618" width="416.961" height="496.211" fill="none"/>
    </clipPath>
    <clipPath id="clip-path-3">
      <rect id="Rectángulo_5619" data-name="Rectángulo 5619" width="419.843" height="496.211" fill="none"/>
    </clipPath>
    <clipPath id="clip-path-4">
      <rect id="Rectángulo_5626" data-name="Rectángulo 5626" width="429.931" height="496.211" fill="none"/>
    </clipPath>
    <clipPath id="clip-path-5">
      <rect id="Rectángulo_5620" data-name="Rectángulo 5620" width="30.733" height="31.027" fill="none"/>
    </clipPath>
    <clipPath id="clip-path-6">
      <rect id="Rectángulo_5621" data-name="Rectángulo 5621" width="3.901" height="3.9" fill="none"/>
    </clipPath>
    <clipPath id="clip-path-7">
      <rect id="Rectángulo_5622" data-name="Rectángulo 5622" width="3.249" height="3.243" fill="none"/>
    </clipPath>
    <clipPath id="clip-path-8">
      <rect id="Rectángulo_5623" data-name="Rectángulo 5623" width="41.749" height="3.385" fill="none"/>
    </clipPath>
    <clipPath id="clip-path-9">
      <rect id="Rectángulo_5624" data-name="Rectángulo 5624" width="20.667" height="4.172" fill="none"/>
    </clipPath>
    <clipPath id="clip-path-10">
      <rect id="Rectángulo_5625" data-name="Rectángulo 5625" width="16.09" height="51.246" fill="#7e92ad"/>
    </clipPath>
    <clipPath id="clip-path-11">
      <rect id="Rectángulo_5627" data-name="Rectángulo 5627" width="421.085" height="496.211" fill="none"/>
    </clipPath>
  </defs>
  <g id="Grupo_19514" data-name="Grupo 19514" transform="translate(-74.65 -270.828)">
    <ellipse id="Elipse_4" data-name="Elipse 4" cx="128.252" cy="15.851" rx="128.252" ry="15.851" transform="translate(214.934 761.026)" fill="#f0f0f0"/>
    <g id="Grupo_19483" data-name="Grupo 19483" transform="translate(74.65 280.269)">
      <g id="Grupo_19482" data-name="Grupo 19482" transform="translate(0 0)" clip-path="url(#clip-path)">
        <path id="Trazado_685" data-name="Trazado 685" d="M98.672,148.963a20.9,20.9,0,0,1,5.1-2.217l1.051-5.051,8.533-.15,1.229,5.01a20.864,20.864,0,0,1,5.178,2.037l4.312-2.827,6.141,5.928-2.674,4.408a20.888,20.888,0,0,1,2.217,5.1l5.051,1.051.15,8.533-5.01,1.229a20.959,20.959,0,0,1-2.037,5.177l2.826,4.313-5.927,6.14-4.409-2.673a20.906,20.906,0,0,1-5.1,2.217l-1.051,5.051-8.533.149-1.229-5.01a20.943,20.943,0,0,1-5.177-2.037L95,188.172l-6.14-5.928,2.673-4.408a20.881,20.881,0,0,1-2.217-5.1l-5.051-1.052-.15-8.533,5.011-1.228a20.908,20.908,0,0,1,2.037-5.178l-2.827-4.313,5.927-6.14Zm4.548,11.368a9.155,9.155,0,1,0,12.946-.228,9.155,9.155,0,0,0-12.946.228" transform="translate(12.264 12.569)" fill="#e0e0e0"/>
        <path id="Trazado_686" data-name="Trazado 686" d="M101.808,158.965a6.894,6.894,0,0,1,1.705-1.5,9.116,9.116,0,0,1,5.972-1.412,9.229,9.229,0,0,1,4.06,1.441,9.383,9.383,0,0,1,3.282,3.7,9.386,9.386,0,0,1,.884,5.389,9.341,9.341,0,0,1-7.728,8.006,9.4,9.4,0,0,1-5.417-.695,9.366,9.366,0,0,1-3.812-3.151,9.208,9.208,0,0,1-1.584-4.007,9.11,9.11,0,0,1,1.2-6.019,6.917,6.917,0,0,1,1.435-1.755c.049.042-.553.6-1.259,1.857a9.132,9.132,0,0,0-1.011,5.862,8.949,8.949,0,0,0,5.226,6.772,8.961,8.961,0,0,0,5.134.629,8.872,8.872,0,0,0,7.305-7.568,8.962,8.962,0,0,0-.81-5.108,8.943,8.943,0,0,0-6.951-4.985,9.125,9.125,0,0,0-5.822,1.218c-1.231.749-1.769,1.37-1.812,1.322" transform="translate(13.677 13.934)" fill="#e0e0e0"/>
        <path id="Trazado_687" data-name="Trazado 687" d="M98.688,148.977a1.9,1.9,0,0,1-.285-.15l-.846-.489-3.323-1.962.1-.014-5.892,6.175.015-.165,2.844,4.3.051.078-.046.082a20.912,20.912,0,0,0-2,5.143l-.024.1-.1.025-5.007,1.242.142-.184c.054,2.687.109,5.538.17,8.532l-.164-.2,5.052,1.041.128.026.036.127a20.8,20.8,0,0,0,2.2,5.045l.071.117-.071.117c-.827,1.368-1.739,2.876-2.667,4.413l-.037-.289,6.147,5.92-.3-.028,4.311-2.831.126-.082.131.073a20.8,20.8,0,0,0,5.116,2.008l.15.036.036.15c.386,1.569.807,3.281,1.231,5.009l-.254-.195,8.533-.154-.251.208c.332-1.6.689-3.317,1.051-5.051l.032-.155.153-.043a20.754,20.754,0,0,0,5.034-2.188l0,0,.137-.082.135.082,4.409,2.674-.325.042,5.93-6.139-.031.323q-1.425-2.178-2.825-4.314l-.085-.13.077-.136a20.705,20.705,0,0,0,2.015-5.113l.037-.15.149-.036,5.011-1.225-.19.247q-.072-4.37-.141-8.533l.192.232-5.049-1.057-.14-.03-.038-.137a20.719,20.719,0,0,0-2.186-5.05l-.071-.118.071-.117,2.68-4.4.036.269-6.128-5.939.25.023-4.32,2.816-.1.062-.1-.056a20.851,20.851,0,0,0-5.127-2.033l-.1-.025-.025-.1c-.44-1.822-.836-3.463-1.212-5.014l.154.118-8.534.112.113-.093c-.432,2.014-.788,3.667-1.083,5.044l-.011.05-.048.013a21.668,21.668,0,0,0-3.9,1.5l-.917.479a2,2,0,0,1-.306.155,2.722,2.722,0,0,1,.285-.194c.195-.12.49-.3.9-.519a20.257,20.257,0,0,1,3.9-1.586l-.059.063,1.019-5.057.019-.092.094,0,8.533-.187.123,0,.031.12c.385,1.549.792,3.187,1.244,5.006l-.126-.126a21.115,21.115,0,0,1,5.228,2.04l-.195.007,4.305-2.837.135-.089.116.112,6.152,5.916.125.12-.09.15c-.866,1.433-1.752,2.9-2.666,4.413V156a21.174,21.174,0,0,1,2.25,5.157l-.178-.166,5.051,1.045.189.039,0,.194q.077,4.16.159,8.532l0,.2-.194.048-5.009,1.232.186-.186a21.153,21.153,0,0,1-2.059,5.241l-.01-.266q1.4,2.134,2.828,4.312l.114.173-.143.15-5.926,6.142-.146.15-.178-.108-4.409-2.673h.271l0,0a21.219,21.219,0,0,1-5.163,2.242l.185-.2c-.361,1.734-.72,3.455-1.052,5.05l-.043.2-.208,0-8.534.146-.2,0-.049-.2c-.422-1.729-.842-3.441-1.225-5.011l.186.186a21.206,21.206,0,0,1-5.238-2.065l.257-.009-4.315,2.823-.163.107-.141-.136-6.132-5.936-.135-.13.1-.16,2.679-4.4v.234a21.185,21.185,0,0,1-2.233-5.161l.164.153L84.238,171.9l-.161-.034,0-.164c-.046-2.994-.089-5.846-.13-8.534l0-.149.146-.036,5.014-1.214-.126.126a21.1,21.1,0,0,1,2.068-5.21l.007.159-2.809-4.324-.059-.09.074-.076,5.963-6.106.047-.048.056.035,3.248,2.021.836.53a2.506,2.506,0,0,1,.282.194" transform="translate(12.248 12.555)" fill="#e0e0e0"/>
        <path id="Trazado_688" data-name="Trazado 688" d="M327.08,204.056a12.55,12.55,0,0,1,3.054-1.328l.629-3.023,5.108-.09.735,3a12.519,12.519,0,0,1,3.1,1.219l2.582-1.692,3.675,3.549-1.6,2.639a12.532,12.532,0,0,1,1.328,3.056l3.023.628.09,5.109-3,.735a12.494,12.494,0,0,1-1.219,3.1l1.692,2.582-3.549,3.676-2.639-1.6a12.523,12.523,0,0,1-3.054,1.326l-.629,3.024-5.109.09-.735-3a12.5,12.5,0,0,1-3.1-1.219l-2.582,1.693-3.676-3.549,1.6-2.64a12.511,12.511,0,0,1-1.329-3.054l-3.023-.629-.09-5.108,3-.735a12.518,12.518,0,0,1,1.219-3.1l-1.692-2.582,3.548-3.675Zm2.723,6.805a5.48,5.48,0,1,0,7.75-.137,5.48,5.48,0,0,0-7.75.137" transform="translate(34.381 18.051)" fill="#f5f5f5"/>
        <path id="Trazado_689" data-name="Trazado 689" d="M328.957,210.044a4.148,4.148,0,0,1,1.02-.9,5.455,5.455,0,0,1,3.576-.846,5.529,5.529,0,0,1,2.431.863,5.611,5.611,0,0,1,1.964,2.214,5.613,5.613,0,0,1,.53,3.225,5.589,5.589,0,0,1-4.626,4.792,5.62,5.62,0,0,1-3.243-.416,5.607,5.607,0,0,1-2.282-1.886,5.524,5.524,0,0,1-.948-2.4,5.456,5.456,0,0,1,.719-3.6,4.144,4.144,0,0,1,.859-1.051c.029.025-.331.36-.753,1.112a5.471,5.471,0,0,0-.606,3.509,5.357,5.357,0,0,0,3.129,4.054,5.346,5.346,0,0,0,3.073.376,5.308,5.308,0,0,0,4.372-4.53,5.344,5.344,0,0,0-.484-3.058,5.356,5.356,0,0,0-4.161-2.983,5.461,5.461,0,0,0-3.486.729c-.737.448-1.058.82-1.085.791" transform="translate(35.226 18.868)" fill="#f5f5f5"/>
        <path id="Trazado_690" data-name="Trazado 690" d="M327.09,204.064a1.043,1.043,0,0,1-.171-.089c-.124-.073-.29-.169-.506-.293q-.693-.407-1.99-1.174l.062-.009-3.527,3.7.01-.1,1.7,2.576.031.045-.026.049a12.44,12.44,0,0,0-1.2,3.08l-.015.061-.061.014-3,.743.085-.111c.032,1.609.066,3.316.1,5.109l-.1-.12,3.024.625.077.014.022.078a12.4,12.4,0,0,0,1.319,3.019l.042.069-.042.072-1.6,2.64-.022-.173c1.155,1.114,2.4,2.315,3.679,3.544l-.182-.016c.8-.529,1.685-1.106,2.579-1.694l.076-.049.079.043a12.455,12.455,0,0,0,3.063,1.2l.089.021.022.09c.231.939.484,1.964.738,3l-.152-.117c1.618-.031,3.351-.061,5.108-.092l-.15.125c.2-.955.413-1.986.629-3.024l.019-.094L337,226.8a12.374,12.374,0,0,0,3.013-1.311h0l.082-.049.08.049,2.64,1.6-.194.026,3.549-3.675-.019.194q-.854-1.305-1.691-2.583l-.051-.078.046-.081a12.378,12.378,0,0,0,1.206-3.061l.022-.09.09-.023q1.522-.369,3-.732l-.114.149q-.044-2.617-.085-5.109l.115.139q-1.538-.322-3.022-.634l-.084-.016-.023-.081a12.347,12.347,0,0,0-1.308-3.024l-.043-.07.043-.071,1.6-2.636.021.162-3.667-3.557.149.014-2.585,1.687-.058.036-.059-.032a12.446,12.446,0,0,0-3.069-1.217l-.061-.016-.014-.059c-.264-1.091-.5-2.075-.726-3l.092.071-5.109.066.068-.055c-.259,1.206-.472,2.194-.649,3.017l-.007.031-.028.009a12.981,12.981,0,0,0-2.337.9l-.549.287a1.138,1.138,0,0,1-.183.092,1.44,1.44,0,0,1,.171-.115c.116-.071.293-.179.538-.31a11.924,11.924,0,0,1,2.331-.95l-.035.038c.166-.826.365-1.819.61-3.029l.011-.054.057,0c1.444-.031,3.129-.067,5.108-.112l.073,0,.019.073c.23.927.474,1.908.745,3l-.076-.075a12.657,12.657,0,0,1,3.129,1.221l-.116.005,2.577-1.7.08-.053.069.067,3.683,3.54.076.073-.055.089c-.518.857-1.048,1.735-1.6,2.642v-.141a12.71,12.71,0,0,1,1.346,3.087l-.107-.1q1.486.31,3.024.627l.114.023,0,.116q.046,2.49.094,5.107l0,.12-.116.028-3,.738.112-.111a12.7,12.7,0,0,1-1.232,3.137l-.005-.16q.837,1.277,1.693,2.581l.068.105-.086.09-3.547,3.675-.088.092-.107-.066-2.639-1.6h.162l0,0a12.612,12.612,0,0,1-3.091,1.342l.11-.118c-.217,1.037-.431,2.068-.629,3.024l-.026.12-.125,0c-1.757.031-3.49.061-5.108.088l-.124,0-.028-.118c-.253-1.035-.5-2.061-.733-3l.111.111a12.652,12.652,0,0,1-3.134-1.236l.154-.005-2.584,1.69-.1.063-.084-.082c-1.275-1.232-2.518-2.435-3.671-3.553l-.081-.078.058-.1c.558-.917,1.107-1.82,1.6-2.636v.139a12.623,12.623,0,0,1-1.336-3.09l.1.092-3.023-.635-.1-.021,0-.1c-.027-1.793-.053-3.5-.078-5.109v-.09l.086-.021,3-.727-.074.076a12.651,12.651,0,0,1,1.238-3.12l0,.1-1.682-2.589-.035-.053.045-.045,3.569-3.655.029-.031.034.023,1.944,1.208c.213.135.378.241.5.318a1.352,1.352,0,0,1,.17.115" transform="translate(34.371 18.043)" fill="#f5f5f5"/>
        <path id="Trazado_691" data-name="Trazado 691" d="M363.943,32.8a16.064,16.064,0,0,1,3.932-1.708l.81-3.893,6.576-.116.947,3.862a16.118,16.118,0,0,1,3.99,1.569l3.324-2.179,4.731,4.569-2.06,3.4a16.114,16.114,0,0,1,1.709,3.933l3.892.81.116,6.576-3.862.947a16.119,16.119,0,0,1-1.569,3.99l2.178,3.324-4.568,4.732-3.4-2.061a16.154,16.154,0,0,1-3.933,1.709l-.81,3.892-6.576.116-.947-3.862a16.12,16.12,0,0,1-3.99-1.569l-3.324,2.179-4.732-4.569,2.061-3.4a16.09,16.09,0,0,1-1.709-3.933l-3.892-.81-.116-6.576,3.861-.947a16.164,16.164,0,0,1,1.57-3.99l-2.179-3.324,4.568-4.732Zm3.505,8.761a7.056,7.056,0,1,0,9.977-.175,7.055,7.055,0,0,0-9.977.175" transform="translate(37.624 1.762)" fill="#f5f5f5"/>
        <path id="Trazado_692" data-name="Trazado 692" d="M366.36,40.511a5.328,5.328,0,0,1,1.313-1.152,7.026,7.026,0,0,1,4.6-1.089,7.1,7.1,0,0,1,3.128,1.112,7.215,7.215,0,0,1,2.53,2.85,7.25,7.25,0,0,1,.682,4.153,7.2,7.2,0,0,1-5.956,6.169,7.224,7.224,0,0,1-4.175-.535,7.231,7.231,0,0,1-2.938-2.428,7.11,7.11,0,0,1-1.22-3.087,7.024,7.024,0,0,1,.926-4.638,5.348,5.348,0,0,1,1.107-1.354c.038.033-.426.463-.97,1.431a7.044,7.044,0,0,0-.78,4.517,6.9,6.9,0,0,0,4.029,5.219,6.884,6.884,0,0,0,3.956.485,6.837,6.837,0,0,0,5.63-5.832A6.9,6.9,0,0,0,377.6,42.4a6.891,6.891,0,0,0-5.357-3.841,7.034,7.034,0,0,0-4.487.938c-.949.577-1.362,1.056-1.4,1.019" transform="translate(38.713 2.814)" fill="#f5f5f5"/>
        <path id="Trazado_693" data-name="Trazado 693" d="M363.955,32.813a1.482,1.482,0,0,1-.219-.116l-.652-.376-2.561-1.512.08-.011c-1.162,1.219-2.691,2.821-4.541,4.759l.012-.127,2.192,3.315.039.059-.035.063a16.088,16.088,0,0,0-1.544,3.964l-.019.078-.079.02-3.859.958.109-.142c.042,2.071.085,4.268.131,6.575l-.127-.153,3.893.8.1.02.027.1a16.077,16.077,0,0,0,1.7,3.888l.055.09-.055.091c-.637,1.055-1.339,2.217-2.055,3.4l-.028-.223,4.738,4.563-.234-.022,3.322-2.182.1-.063.1.057a16.051,16.051,0,0,0,3.943,1.548l.115.027.029.116c.3,1.209.622,2.528.949,3.861l-.2-.151,6.576-.118-.194.16.81-3.893.024-.119.118-.034A15.934,15.934,0,0,0,380.6,60.4l0,0,.106-.062.1.062,3.4,2.061-.25.033,4.569-4.731L388.5,58q-1.1-1.678-2.177-3.325l-.066-.1.058-.105a15.932,15.932,0,0,0,1.553-3.94l.028-.116.115-.028,3.862-.943-.147.19q-.056-3.367-.109-6.575l.149.178-3.892-.815-.107-.022-.03-.106a16.013,16.013,0,0,0-1.684-3.892L386,38.314l.055-.091q1.062-1.745,2.065-3.394l.027.208-4.722-4.578.193.019-3.329,2.17-.073.048-.077-.043a16.073,16.073,0,0,0-3.952-1.568l-.078-.02-.02-.078c-.338-1.4-.645-2.669-.934-3.863l.118.091L368.7,27.3l.088-.072c-.334,1.552-.607,2.826-.835,3.887l-.009.038-.038.011a16.605,16.605,0,0,0-3.006,1.157l-.707.369a1.569,1.569,0,0,1-.236.12,1.985,1.985,0,0,1,.219-.149c.151-.093.379-.232.694-.4a15.566,15.566,0,0,1,3-1.224l-.046.049c.215-1.064.472-2.341.785-3.9l.014-.07.073,0,6.576-.144.094,0,.024.093.959,3.858-.1-.1a16.226,16.226,0,0,1,4.029,1.572l-.15.005,3.318-2.187.1-.068.09.086,4.741,4.558.1.093-.07.116q-1,1.656-2.054,3.4v-.181a16.291,16.291,0,0,1,1.733,3.974l-.137-.128,3.893.805.146.03,0,.15q.059,3.206.122,6.575l0,.154-.15.036-3.86.95.143-.143a16.32,16.32,0,0,1-1.587,4.039l-.008-.2,2.18,3.323.088.134-.111.115q-2.252,2.333-4.567,4.733l-.113.116L384,62.8l-3.4-2.061h.206a16.342,16.342,0,0,1-3.978,1.728l.142-.153c-.279,1.336-.555,2.664-.811,3.893l-.033.158-.161,0-6.576.113-.159,0-.037-.153c-.326-1.333-.648-2.653-.943-3.862l.142.143a16.306,16.306,0,0,1-4.036-1.592l.2-.007-3.326,2.176-.127.082-.107-.1-4.727-4.575-.1-.1.076-.123,2.065-3.395v.181a16.281,16.281,0,0,1-1.72-3.977l.126.117-3.891-.818-.124-.026,0-.127c-.035-2.307-.068-4.506-.1-6.576l0-.115.112-.027,3.864-.936-.1.1a16.3,16.3,0,0,1,1.594-4.015l0,.123c-.779-1.2-1.508-2.323-2.165-3.332l-.045-.07.057-.058,4.6-4.7.037-.038.043.027,2.5,1.557.644.409a1.941,1.941,0,0,1,.218.149" transform="translate(37.612 1.752)" fill="#f5f5f5"/>
        <path id="Trazado_694" data-name="Trazado 694" d="M265.632,59.326A12.551,12.551,0,0,1,268.686,58l.629-3.023,5.108-.09.735,3a12.519,12.519,0,0,1,3.1,1.219l2.582-1.692,3.675,3.549-1.6,2.639a12.534,12.534,0,0,1,1.328,3.056l3.023.628.09,5.109-3,.735a12.516,12.516,0,0,1-1.219,3.1l1.692,2.582-3.549,3.675-2.639-1.6a12.557,12.557,0,0,1-3.056,1.328l-.628,3.023-5.109.09-.735-3a12.494,12.494,0,0,1-3.1-1.219L263.433,82.8l-3.676-3.549,1.6-2.64a12.552,12.552,0,0,1-1.328-3.054l-3.023-.629-.09-5.108,3-.735a12.518,12.518,0,0,1,1.219-3.1L259.444,61.4l3.548-3.675Zm2.723,6.805A5.48,5.48,0,1,0,276.1,66a5.481,5.481,0,0,0-7.749.136" transform="translate(28.579 4.387)" fill="#f5f5f5"/>
        <path id="Trazado_695" data-name="Trazado 695" d="M267.509,65.314a4.146,4.146,0,0,1,1.02-.9,5.452,5.452,0,0,1,3.575-.846,5.53,5.53,0,0,1,2.431.863A5.61,5.61,0,0,1,276.5,66.65a5.614,5.614,0,0,1,.53,3.226,5.59,5.59,0,0,1-4.626,4.791,5.271,5.271,0,0,1-1.688.03,5.332,5.332,0,0,1-1.555-.444,5.618,5.618,0,0,1-2.282-1.887,5.51,5.51,0,0,1-.948-2.4,5.454,5.454,0,0,1,.719-3.6,4.139,4.139,0,0,1,.859-1.052c.03.025-.33.36-.753,1.112a5.47,5.47,0,0,0-.606,3.509,5.356,5.356,0,0,0,3.129,4.054,5.347,5.347,0,0,0,3.073.376,5.311,5.311,0,0,0,4.372-4.53,5.368,5.368,0,0,0-.484-3.058,5.356,5.356,0,0,0-4.161-2.983,5.461,5.461,0,0,0-3.486.729c-.737.448-1.058.82-1.085.791" transform="translate(29.425 5.204)" fill="#f5f5f5"/>
        <path id="Trazado_696" data-name="Trazado 696" d="M265.642,59.334a1.167,1.167,0,0,1-.171-.089c-.124-.072-.29-.17-.506-.293l-1.99-1.174.062-.009-3.527,3.7.01-.1,1.7,2.575.031.046-.026.05a12.439,12.439,0,0,0-1.2,3.077l-.015.061-.061.014c-.934.232-1.945.485-3,.744l.085-.109c.032,1.609.066,3.314.1,5.107l-.1-.119,3.024.624.077.018.022.076a12.4,12.4,0,0,0,1.319,3.019l.042.07-.042.071c-.5.818-1.041,1.722-1.6,2.641l-.023-.174c1.156,1.114,2.4,2.314,3.68,3.544l-.182-.015,2.58-1.7.076-.048.079.043a12.368,12.368,0,0,0,3.063,1.2l.089.021.022.09c.231.94.484,1.964.738,3l-.152-.117,5.108-.091-.15.124c.2-.954.413-1.985.629-3.024l.019-.092.092-.026a12.361,12.361,0,0,0,3.013-1.309l0,0,.082-.048.08.048,2.64,1.6-.194.026,3.549-3.675-.019.194q-.854-1.3-1.691-2.582l-.052-.079.046-.081a12.381,12.381,0,0,0,1.206-3.061l.022-.09.09-.022,3-.733-.114.148q-.044-2.613-.085-5.108l.115.139-3.022-.633-.084-.018-.023-.081a12.329,12.329,0,0,0-1.308-3.024l-.043-.07.043-.071,1.6-2.636.021.161c-1.29-1.251-2.508-2.431-3.667-3.556l.149.014-2.585,1.686-.058.038-.059-.034a12.4,12.4,0,0,0-3.069-1.217l-.061-.016-.014-.059-.726-3,.092.071-5.109.068.068-.056c-.259,1.2-.472,2.194-.649,3.019l-.007.028-.028.009a13.085,13.085,0,0,0-2.337.9c-.235.123-.417.219-.549.287a1,1,0,0,1-.183.093,1.731,1.731,0,0,1,.171-.116c.116-.071.293-.179.538-.309a11.984,11.984,0,0,1,2.331-.951l-.035.038c.166-.826.366-1.818.61-3.026l.011-.056h.057l5.108-.113.073,0,.019.073c.23.926.474,1.908.745,3l-.076-.076a12.6,12.6,0,0,1,3.129,1.22l-.116.005c.82-.542,1.671-1.1,2.577-1.7l.08-.053.07.067,3.682,3.542.076.072-.055.09-1.6,2.641v-.141a12.741,12.741,0,0,1,1.346,3.086l-.107-.1q1.486.31,3.024.627l.114.023,0,.115q.046,2.492.094,5.108l0,.119-.116.031-3,.737.112-.112a12.674,12.674,0,0,1-1.232,3.138l-.005-.159q.837,1.276,1.693,2.581l.068.1-.086.09L281.4,82.6l-.088.091-.107-.066-2.639-1.6h.162l0,0a12.709,12.709,0,0,1-3.091,1.341l.111-.118c-.217,1.037-.431,2.067-.629,3.024l-.026.123h-.125l-5.108.089h-.124l-.028-.118c-.253-1.036-.5-2.061-.733-3l.111.111a12.652,12.652,0,0,1-3.134-1.237l.154-.005-2.584,1.69-.1.065-.084-.081-3.671-3.552-.081-.079.058-.1c.559-.918,1.106-1.82,1.6-2.636v.139a12.644,12.644,0,0,1-1.336-3.087l.1.09-3.023-.635-.1-.021,0-.1c-.027-1.793-.053-3.5-.078-5.108v-.09l.086-.021,3-.727-.074.076a12.607,12.607,0,0,1,1.238-3.119l0,.1-1.682-2.589-.035-.053.045-.046c1.453-1.487,2.655-2.719,3.569-3.655l.028-.03.034.023c.844.524,1.493.929,1.944,1.208.213.137.378.241.5.317a1.61,1.61,0,0,1,.17.116" transform="translate(28.569 4.379)" fill="#f5f5f5"/>
        <path id="Trazado_697" data-name="Trazado 697" d="M51.743,141.647A12.593,12.593,0,0,1,54.8,140.32l.629-3.023,5.108-.09.735,3a12.557,12.557,0,0,1,3.1,1.218l2.582-1.691,3.675,3.548-1.6,2.639a12.534,12.534,0,0,1,1.328,3.056l3.023.629.09,5.108-3,.735a12.519,12.519,0,0,1-1.219,3.1l1.692,2.582L67.392,164.8l-2.64-1.6a12.562,12.562,0,0,1-3.056,1.329l-.628,3.023-5.109.09-.735-3a12.455,12.455,0,0,1-3.1-1.22l-2.582,1.693-3.676-3.548,1.6-2.64a12.587,12.587,0,0,1-1.328-3.055l-3.023-.63-.09-5.108,3-.734a12.518,12.518,0,0,1,1.219-3.1l-1.692-2.583,3.548-3.675Zm2.723,6.805a5.481,5.481,0,1,0,7.75-.136,5.483,5.483,0,0,0-7.75.136" transform="translate(8.385 12.159)" fill="#f5f5f5"/>
        <path id="Trazado_698" data-name="Trazado 698" d="M53.62,147.635a4.147,4.147,0,0,1,1.02-.9,5.447,5.447,0,0,1,3.575-.845,5.53,5.53,0,0,1,2.431.864,5.606,5.606,0,0,1,1.964,2.213,5.614,5.614,0,0,1,.53,3.226,5.589,5.589,0,0,1-4.626,4.792,5.238,5.238,0,0,1-1.688.028,5.33,5.33,0,0,1-1.555-.443,5.628,5.628,0,0,1-2.282-1.888,5.532,5.532,0,0,1-.229-6,4.162,4.162,0,0,1,.859-1.053c.03.025-.331.36-.753,1.113a5.467,5.467,0,0,0-.606,3.508,5.356,5.356,0,0,0,3.129,4.055,5.371,5.371,0,0,0,3.073.376,5.311,5.311,0,0,0,4.372-4.531,5.373,5.373,0,0,0-.484-3.058,5.4,5.4,0,0,0-1.848-2.123,5.336,5.336,0,0,0-2.312-.859,5.455,5.455,0,0,0-3.486.728c-.737.448-1.058.821-1.085.791" transform="translate(9.231 12.976)" fill="#f5f5f5"/>
        <path id="Trazado_699" data-name="Trazado 699" d="M51.753,141.656a1.124,1.124,0,0,1-.171-.09l-.506-.292-1.99-1.175.062-.008-3.527,3.7.01-.1,1.7,2.575.031.046-.026.049a12.45,12.45,0,0,0-1.2,3.079l-.015.061-.061.014-3,.744.085-.111c.032,1.609.066,3.315.1,5.108l-.1-.119,3.024.624.077.016.022.076a12.383,12.383,0,0,0,1.319,3.019l.042.07-.042.071c-.5.819-1.041,1.722-1.6,2.641l-.023-.173,3.681,3.544-.182-.016,2.58-1.7.076-.049.079.044a12.41,12.41,0,0,0,3.063,1.2l.089.022.022.09c.231.939.484,1.964.738,3l-.152-.117,5.108-.092-.15.125c.2-.955.413-1.985.629-3.024l.019-.093.092-.025a12.363,12.363,0,0,0,3.013-1.31h0l.082-.049.08.049,2.64,1.6-.195.025q1.8-1.862,3.55-3.674l-.019.193-1.691-2.582-.051-.079.046-.081a12.36,12.36,0,0,0,1.206-3.061l.022-.09.09-.021,3-.733-.114.148q-.044-2.615-.085-5.108l.115.139-3.022-.634-.084-.018-.023-.081A12.365,12.365,0,0,0,68.919,146l-.043-.07.043-.07,1.6-2.636.021.161-3.667-3.556.149.014-2.585,1.685-.058.038-.059-.034a12.448,12.448,0,0,0-3.069-1.217l-.061-.015-.014-.06-.726-3,.092.071-5.109.067.068-.056-.649,3.019-.007.03-.028.009a12.917,12.917,0,0,0-2.337.9l-.549.287a1.228,1.228,0,0,1-.183.093,1.523,1.523,0,0,1,.171-.116c.116-.071.293-.179.538-.31a12.07,12.07,0,0,1,2.331-.95l-.035.038c.166-.826.366-1.819.61-3.027l.011-.056h.057l5.108-.112.073,0,.019.073c.23.926.474,1.908.745,3l-.076-.076a12.654,12.654,0,0,1,3.129,1.22l-.116,0,2.577-1.7.08-.053.069.067,3.683,3.542.076.072-.055.09L69.151,146v-.14a12.7,12.7,0,0,1,1.346,3.086l-.107-.1,3.024.625.114.023,0,.116q.046,2.492.094,5.108l0,.119-.116.03-3,.737.112-.111a12.694,12.694,0,0,1-1.232,3.138l-.005-.16q.837,1.277,1.693,2.581l.068.1-.086.09-3.547,3.676-.088.091-.107-.066-2.639-1.6h.16a12.716,12.716,0,0,1-3.091,1.342l.111-.118c-.217,1.038-.431,2.067-.629,3.023l-.026.123H61.08l-5.108.088-.124,0-.028-.119c-.253-1.035-.5-2.06-.733-3l.111.112a12.7,12.7,0,0,1-3.134-1.237l.154-.005-2.584,1.69-.1.065-.084-.082-3.671-3.552L45.7,161.6l.058-.1,1.6-2.636v.14a12.65,12.65,0,0,1-1.336-3.088l.1.091-3.023-.635-.1-.021,0-.1c-.027-1.793-.053-3.5-.078-5.108v-.09l.086-.022,3-.727-.074.076a12.641,12.641,0,0,1,1.238-3.119l0,.1L45.5,143.775l-.035-.054.045-.045,3.569-3.655.028-.03.034.022,1.944,1.209.5.317a1.428,1.428,0,0,1,.17.116" transform="translate(8.376 12.151)" fill="#f5f5f5"/>
        <path id="Trazado_700" data-name="Trazado 700" d="M75.2,215.1a39.626,39.626,0,0,1,9.679-4.206l1.993-9.58,16.186-.283,2.329,9.5A39.66,39.66,0,0,1,115.2,214.4l8.18-5.363,11.646,11.245-5.069,8.361a39.659,39.659,0,0,1,4.206,9.681l9.578,1.993.285,16.186-9.5,2.329a39.691,39.691,0,0,1-3.863,9.82l5.36,8.181L124.78,288.483l-8.362-5.072a39.668,39.668,0,0,1-9.68,4.206l-1.994,9.581-16.185.283-2.33-9.5a39.688,39.688,0,0,1-9.82-3.863l-8.18,5.363L56.581,278.232l5.07-8.362a39.609,39.609,0,0,1-4.206-9.68L47.867,258.2l-.285-16.185,9.5-2.33a39.69,39.69,0,0,1,3.863-9.82l-5.362-8.181,11.243-11.646Zm8.628,21.562a17.366,17.366,0,1,0,24.554-.432A17.366,17.366,0,0,0,83.823,236.667Z" transform="translate(8.815 18.185)" fill="none" stroke="#e0e0e0" stroke-width="0.05"/>
        <path id="Trazado_701" data-name="Trazado 701" d="M81.144,234.078a13.124,13.124,0,0,1,3.233-2.838,17.29,17.29,0,0,1,11.329-2.678,17.492,17.492,0,0,1,7.7,2.735,17.775,17.775,0,0,1,6.227,7.016,17.805,17.805,0,0,1,1.677,10.22,17.714,17.714,0,0,1-14.659,15.185A17.8,17.8,0,0,1,86.377,262.4a17.785,17.785,0,0,1-7.231-5.978,17.492,17.492,0,0,1-3-7.6,17.285,17.285,0,0,1,2.28-11.416,13.1,13.1,0,0,1,2.722-3.33c.094.08-1.048,1.139-2.386,3.523a17.319,17.319,0,0,0-1.921,11.117,16.972,16.972,0,0,0,9.914,12.845,16.957,16.957,0,0,0,9.736,1.194A16.826,16.826,0,0,0,110.344,248.4a16.977,16.977,0,0,0-1.534-9.687,16.971,16.971,0,0,0-13.184-9.456,17.318,17.318,0,0,0-11.044,2.309c-2.335,1.421-3.354,2.6-3.438,2.508" transform="translate(11.495 20.775)" fill="#ebebeb"/>
        <path id="Trazado_702" data-name="Trazado 702" d="M75.226,215.131a3.767,3.767,0,0,1-.54-.285l-1.6-.927-6.3-3.723.2-.025L55.8,221.881l.03-.313,5.394,8.158.1.148-.085.155a39.6,39.6,0,0,0-3.8,9.756l-.046.192-.194.048c-2.959.734-6.164,1.529-9.5,2.357l.269-.351c.1,5.1.209,10.505.322,16.184l-.312-.376,9.583,1.974.244.051.069.24a39.36,39.36,0,0,0,4.177,9.57l.135.222-.135.223-5.058,8.369-.071-.548,11.66,11.23-.576-.055,8.174-5.369.24-.158.251.139a39.446,39.446,0,0,0,9.7,3.81l.283.069.069.283,2.337,9.5-.483-.372,16.185-.291-.475.394,1.992-9.579.061-.3.289-.082a39.291,39.291,0,0,0,9.55-4.148l.008-.005.262-.154.254.154,8.364,5.071-.615.08L135.7,276.519l-.058.613-5.357-8.183-.163-.248.144-.257a39.192,39.192,0,0,0,3.822-9.7l.071-.285.283-.068,9.5-2.323-.361.47q-.136-8.289-.268-16.185l.364.44-9.576-2-.265-.056-.073-.259a39.31,39.31,0,0,0-4.146-9.579l-.135-.224.135-.222,5.085-8.353.067.511L123.15,209.34l.474.045-8.194,5.341-.182.118-.188-.105a39.488,39.488,0,0,0-9.725-3.858l-.194-.048-.046-.192c-.834-3.456-1.587-6.57-2.3-9.51l.291.224-16.187.212.215-.177c-.821,3.821-1.494,6.956-2.054,9.566l-.021.1-.093.026a41.1,41.1,0,0,0-7.4,2.847l-1.74.909a3.987,3.987,0,0,1-.581.3,5.057,5.057,0,0,1,.54-.368c.37-.228.931-.569,1.706-.983a38.322,38.322,0,0,1,7.389-3.01l-.113.122c.528-2.618,1.16-5.761,1.932-9.593l.035-.174.179,0,16.184-.355.234-.005.057.23c.73,2.936,1.5,6.044,2.362,9.5l-.24-.24a39.975,39.975,0,0,1,9.916,3.869l-.37.013,8.168-5.381.253-.167.221.212,11.669,11.22.238.23-.172.283-5.056,8.37v-.445a40.128,40.128,0,0,1,4.266,9.781l-.338-.315q4.706.975,9.582,1.982l.358.074.007.367q.148,7.895.3,16.185l.008.378-.369.091-9.5,2.338.354-.353a40.161,40.161,0,0,1-3.9,9.943l-.019-.506,5.365,8.179.217.329-.274.283-11.241,11.649-.276.286-.339-.207-8.363-5.069h.515l-.009,0a40.2,40.2,0,0,1-9.793,4.253l.35-.376c-.685,3.289-1.365,6.553-2,9.578l-.081.387-.4.007L88.6,298l-.39.007-.093-.379c-.8-3.28-1.6-6.528-2.323-9.505l.352.352a40.235,40.235,0,0,1-9.934-3.918l.489-.018-8.186,5.354-.311.2-.265-.257c-4.039-3.908-7.979-7.722-11.633-11.258l-.255-.246.184-.3c1.77-2.909,3.506-5.765,5.082-8.355v.444a40.142,40.142,0,0,1-4.234-9.79l.312.29-9.576-2.013-.306-.065-.005-.312c-.086-5.68-.17-11.089-.247-16.186l0-.283.276-.067,9.509-2.3-.24.24a40.069,40.069,0,0,1,3.926-9.884l.011.3-5.329-8.2-.111-.171.14-.143L66.748,209.95l.09-.092.107.067,6.16,3.833,1.585,1.007a4.767,4.767,0,0,1,.536.367" transform="translate(8.784 18.159)" fill="#ebebeb"/>
        <path id="Trazado_703" data-name="Trazado 703" d="M330.684,65.169a26.7,26.7,0,0,1,7.016,1.079l4.571-4.734,9.31,5.646L349.5,73.4a26.621,26.621,0,0,1,4.2,5.722l6.579-.115,2.592,10.576-5.886,2.938a26.65,26.65,0,0,1-1.08,7.016l4.734,4.571-5.646,9.311-6.242-2.085a26.727,26.727,0,0,1-5.721,4.2l.115,6.577-10.576,2.593-2.938-5.887a26.661,26.661,0,0,1-7.016-1.08l-4.572,4.736-9.31-5.646,2.085-6.244a26.659,26.659,0,0,1-4.2-5.722l-6.579.115L297.442,94.4l5.886-2.937a26.658,26.658,0,0,1,1.08-7.017l-4.735-4.571,5.646-9.31,6.244,2.084a26.661,26.661,0,0,1,5.722-4.2l-.115-6.579,10.575-2.592Zm-2.828,15.363A11.681,11.681,0,1,0,341.981,89.1a11.679,11.679,0,0,0-14.126-8.565" transform="translate(32.405 4.802)" fill="#e0e0e0"/>
        <path id="Trazado_704" data-name="Trazado 704" d="M326.023,78.738a8.815,8.815,0,0,1,2.857-.454,11.628,11.628,0,0,1,7.407,2.541,11.768,11.768,0,0,1,3.4,4.32,11.951,11.951,0,0,1,1.025,6.225A11.983,11.983,0,0,1,338,97.788a11.919,11.919,0,0,1-13.788,3.38,11.982,11.982,0,0,1-5.374-4.437,11.965,11.965,0,0,1-1.969-6,11.778,11.778,0,0,1,1.018-5.4,11.635,11.635,0,0,1,5.393-5.677,8.815,8.815,0,0,1,2.744-.918c.025.079-1.006.273-2.622,1.148a11.654,11.654,0,0,0-5.081,5.636,11.416,11.416,0,0,0,1.032,10.865,11.408,11.408,0,0,0,5.111,4.173A11.318,11.318,0,0,0,337.5,97.366a11.437,11.437,0,0,0,2.6-6.062,11.42,11.42,0,0,0-4.108-10.111,11.645,11.645,0,0,0-7.111-2.648c-1.84-.03-2.842.276-2.856.194" transform="translate(34.238 6.596)" fill="#e0e0e0"/>
        <path id="Trazado_705" data-name="Trazado 705" d="M330.714,65.18a2.674,2.674,0,0,1-.2-.356l-.58-1.1-2.25-4.38.12.056-10.56,2.653.129-.167c.043,1.993.091,4.208.142,6.577l0,.118-.105.058a26.667,26.667,0,0,0-5.663,4.186l-.1.093-.127-.043-6.249-2.066.279-.1-5.624,9.323-.043-.326,4.743,4.563.121.116-.048.161a26.566,26.566,0,0,0-1.056,6.944l0,.174-.157.079-5.881,2.947.157-.338c.818,3.322,1.7,6.9,2.6,10.573l-.309-.237,6.579-.121.193,0,.092.169a26.562,26.562,0,0,0,4.154,5.649l.137.141-.062.186c-.652,1.956-1.363,4.09-2.08,6.245l-.141-.384,9.312,5.642-.412.054,4.57-4.736.141-.147.194.058a26.446,26.446,0,0,0,6.922,1.066h.007l.2.005.09.179q1.479,2.965,2.939,5.886l-.379-.175,10.576-2.589-.253.328q-.056-3.323-.112-6.578l0-.2.174-.094a26.38,26.38,0,0,0,5.654-4.147l.142-.136.186.062,6.241,2.089-.374.137q2.9-4.764,5.655-9.3l.049.381-4.728-4.577-.131-.127.051-.174a26.483,26.483,0,0,0,1.079-6.937l0-.175.157-.079,5.89-2.928-.146.315c-.9-3.722-1.758-7.236-2.57-10.582l.253.2-6.577.1-.147,0-.069-.127a26.556,26.556,0,0,0-4.149-5.684l-.092-.1.042-.125c.766-2.267,1.454-4.308,2.106-6.236l.085.232-9.286-5.688.186-.024-4.6,4.706-.046.047-.062-.019a27.558,27.558,0,0,0-5.232-1.035l-1.317-.107a2.658,2.658,0,0,1-.437-.04,3.546,3.546,0,0,1,.439-.015c.292,0,.733.01,1.323.053a25.852,25.852,0,0,1,5.284.939l-.107.028,4.541-4.764.083-.086.1.062L351.714,67l.136.081-.05.151c-.638,1.932-1.313,3.978-2.063,6.249l-.05-.222a26.906,26.906,0,0,1,4.253,5.759l-.215-.125,6.577-.131.2,0,.049.2c.826,3.341,1.693,6.852,2.612,10.571l.054.216-.2.1-5.879,2.948.16-.254a27.029,27.029,0,0,1-1.082,7.1l-.079-.3q2.328,2.242,4.74,4.566l.177.171-.128.211-5.636,9.316-.132.218-.242-.08-6.244-2.079.327-.074a27,27,0,0,1-5.789,4.255l.171-.293q.059,3.255.118,6.577l0,.265-.257.063-10.575,2.595-.259.063-.119-.24-2.938-5.885.292.185h-.007a27.038,27.038,0,0,1-7.1-1.093l.335-.089-4.572,4.733-.185.192-.228-.138-9.308-5.65-.224-.136.083-.248,2.089-6.241.073.327a27.086,27.086,0,0,1-4.246-5.794l.285.165-6.578.108-.25,0-.059-.241-2.578-10.58-.057-.232.215-.106,5.889-2.93-.16.253a27.02,27.02,0,0,1,1.1-7.089l.074.276c-1.653-1.6-3.264-3.162-4.727-4.58l-.151-.148.109-.179,5.667-9.3.1-.163.181.06,6.237,2.1-.222.05a26.913,26.913,0,0,1,5.78-4.215l-.1.175c-.032-2.369-.062-4.585-.089-6.579l0-.136.131-.032,10.591-2.53.084-.021.037.077c.924,1.905,1.635,3.373,2.13,4.392l.54,1.14a3.1,3.1,0,0,1,.174.4" transform="translate(32.375 4.792)" fill="#e0e0e0"/>
        <path id="Trazado_708" data-name="Trazado 708" d="M36.884,422.11v33.755H140.69V422.11Z" transform="translate(-0.034 -9.938)" fill="#f5f5f5"/>
        <path id="Trazado_709" data-name="Trazado 709" d="M32.9,413.487v9.437H144.7v-9.437H32.9Z" transform="translate(-0.41 -10.752)" fill="#e0e0e0"/>
        <path id="Trazado_710" data-name="Trazado 710" d="M84.166,456.679h52.266V422.924h3.63v-9.437H81.988v8.564Z" transform="translate(4.224 -10.752)" fill="#e0e0e0"/>
        <rect id="Rectángulo_5613" data-name="Rectángulo 5613" width="21.052" height="5.081" transform="translate(51.368 417.616)" fill="#e0e0e0"/>
        <rect id="Rectángulo_5614" data-name="Rectángulo 5614" width="27.032" height="10.73" transform="translate(48.658 429.049)" fill="#fff"/>
        <path id="Trazado_711" data-name="Trazado 711" d="M51.477,382.685V416.44H155.283V382.685Z" transform="translate(1.343 -13.66)" fill="#f5f5f5"/>
        <path id="Trazado_712" data-name="Trazado 712" d="M47.5,374.062V383.5H159.289v-9.437H47.5Z" transform="translate(0.968 -14.474)" fill="#e0e0e0"/>
        <path id="Trazado_713" data-name="Trazado 713" d="M98.759,417.254h52.266V383.5h3.63v-9.437H96.581v8.564Z" transform="translate(5.602 -14.474)" fill="#e0e0e0"/>
        <rect id="Rectángulo_5615" data-name="Rectángulo 5615" width="21.052" height="5.081" transform="translate(67.339 374.468)" fill="#e0e0e0"/>
        <rect id="Rectángulo_5616" data-name="Rectángulo 5616" width="27.032" height="10.73" transform="translate(64.629 385.902)" fill="#fff"/>
      </g>
    </g>
    <g id="Grupo_19487" data-name="Grupo 19487" transform="translate(78.973 279.474)">
      <g id="Grupo_19486" data-name="Grupo 19486" clip-path="url(#clip-path-3)">
        <path id="Trazado_715" data-name="Trazado 715" d="M70.015,34.684a52.663,52.663,0,0,1,12.869-5.54l2.691-12.71,21.49-.3,3.049,12.627a52.642,52.642,0,0,1,13.021,5.174l10.885-7.081L149.43,41.835l-6.77,11.079a52.618,52.618,0,0,1,5.54,12.871l12.708,2.691.3,21.489-12.627,3.05a52.657,52.657,0,0,1-5.175,13.019l7.081,10.886-14.98,15.41-11.08-6.77a52.615,52.615,0,0,1-12.871,5.539l-2.69,12.709-21.491.3-3.049-12.628a52.737,52.737,0,0,1-13.02-5.174l-10.885,7.081-15.41-14.981,6.771-11.08a52.611,52.611,0,0,1-5.54-12.87L33.534,91.768l-.3-21.49,12.63-3.05a52.684,52.684,0,0,1,5.173-13.019L43.953,43.323l14.98-15.409Z" transform="translate(3.137 1.523)" fill="#ef9600" fill-rule="evenodd"/>
        <path id="Trazado_716" data-name="Trazado 716" d="M106.524,70.444a29.822,29.822,0,0,0-.689-4.516,17.8,17.8,0,0,0-2.077-4.9,18.391,18.391,0,0,0-22.085-7.808,17.242,17.242,0,0,0-4.637,2.5,16.831,16.831,0,0,0-3.872,3.9,18.248,18.248,0,0,0,0,21.662A20.738,20.738,0,0,0,74.957,83.4a20.525,20.525,0,0,0,2.078,1.77,17.23,17.23,0,0,0,4.637,2.5,18.448,18.448,0,0,0,22.086-7.809,17.817,17.817,0,0,0,2.076-4.9,29.6,29.6,0,0,0,.689-4.514,1.2,1.2,0,0,1,.014.3c0,.232-.01.524-.016.888a8.561,8.561,0,0,1-.119,1.438,13.045,13.045,0,0,1-.352,1.941,17.63,17.63,0,0,1-2.018,5.011A18.76,18.76,0,0,1,91.4,88.951a18.871,18.871,0,0,1-9.906-.787,17.7,17.7,0,0,1-4.781-2.557,17.265,17.265,0,0,1-4-4,18.757,18.757,0,0,1,0-22.323,17.256,17.256,0,0,1,4-4,17.7,17.7,0,0,1,4.781-2.557,18.867,18.867,0,0,1,9.9-.787,18.754,18.754,0,0,1,12.634,8.925,17.6,17.6,0,0,1,2.019,5.012,13.045,13.045,0,0,1,.352,1.941,8.553,8.553,0,0,1,.119,1.438c.007.363.012.656.016.888a1.2,1.2,0,0,1-.014.3" transform="translate(6.517 4.873)" fill="#fff"/>
        <path id="Trazado_717" data-name="Trazado 717" d="M97.933,81.205c.112-.112,4.165,3.763,9.054,8.651s8.763,8.942,8.651,9.054-4.164-3.761-9.054-8.651-8.763-8.942-8.651-9.054" transform="translate(9.246 7.667)" fill="#fff"/>
        <path id="Trazado_718" data-name="Trazado 718" d="M205.156,109.443a67.592,67.592,0,0,1,16.519-7.111l3.454-16.313,27.584-.389,3.914,16.208a67.537,67.537,0,0,1,16.714,6.642l13.972-9.089,19.779,19.231-8.691,14.22a67.5,67.5,0,0,1,7.11,16.522l16.313,3.454.39,27.584-16.209,3.914a67.59,67.59,0,0,1-6.642,16.712L308.452,215l-19.23,19.78L275,226.09a67.584,67.584,0,0,1-16.521,7.11l-3.453,16.313-27.585.389-3.914-16.209a67.614,67.614,0,0,1-16.713-6.642l-13.971,9.089-19.78-19.23,8.69-14.221a67.56,67.56,0,0,1-7.11-16.521l-16.313-3.454-.389-27.584,16.21-3.915a67.561,67.561,0,0,1,6.641-16.712L171.7,120.532l19.229-19.78Z" transform="translate(14.911 8.084)" fill="#ef9600" fill-rule="evenodd"/>
        <path id="Trazado_719" data-name="Trazado 719" d="M226.134,192.25a2.755,2.755,0,0,1,.331-.016l.942-.018,3.624-.04,13.532-.094-.169.172c-.055-2.33-.117-4.942-.183-7.742l0-.129.124-.056a41.869,41.869,0,0,0,11.581-7.92,29.307,29.307,0,0,0,4.854-6.223,21.292,21.292,0,0,0,2.673-7.913,26.294,26.294,0,0,0-4.141-17.332,31.5,31.5,0,0,0-15.1-12.04,25.977,25.977,0,0,0-14.492-1.006,28.466,28.466,0,0,0-12.589,5.817,25.709,25.709,0,0,0-7.6,10.5c-.336,1-.767,1.949-1.015,2.948s-.484,1.989-.72,2.966a31.493,31.493,0,0,0-.518,5.846,26.99,26.99,0,0,0,.694,5.5,25.355,25.355,0,0,0,1.775,4.9,28.143,28.143,0,0,0,5.457,7.561,37.419,37.419,0,0,0,11.289,7.716l.069.031,0,.07q-.189,3.16-.289,4.826c-.035.53-.062.939-.083,1.241a4.1,4.1,0,0,1-.039.431,2.9,2.9,0,0,1,0-.4c.008-.3.02-.7.034-1.22q.061-1.688.174-4.892l.065.1a36.958,36.958,0,0,1-11.463-7.658,28.337,28.337,0,0,1-5.579-7.628,25.6,25.6,0,0,1-1.833-4.978,27.351,27.351,0,0,1-.732-5.6,31.911,31.911,0,0,1,.5-5.945q.356-1.489.72-3.013c.249-1.016.684-1.989,1.023-3a26.17,26.17,0,0,1,7.73-10.727,28.95,28.95,0,0,1,12.825-5.949,26.493,26.493,0,0,1,14.8,1.023,32,32,0,0,1,15.367,12.271,26.017,26.017,0,0,1,3.687,8.691,15.987,15.987,0,0,1,.41,2.27,14.728,14.728,0,0,1,.229,2.267c.021.756.062,1.507.066,2.252q-.1,1.118-.2,2.223a21.768,21.768,0,0,1-2.759,8.091,29.668,29.668,0,0,1-4.959,6.31,41.98,41.98,0,0,1-11.756,7.949l.12-.184c.046,2.8.089,5.412.127,7.743l0,.173h-.171l-13.634-.094-3.585-.04-.912-.018a1.888,1.888,0,0,1-.3-.016" transform="translate(19.524 12.343)" fill="#fff"/>
        <path id="Trazado_720" data-name="Trazado 720" d="M243.182,191.648a78.958,78.958,0,0,1-9.468.29,78.771,78.771,0,0,1-9.468-.281,79.077,79.077,0,0,1,9.468-.289,78.961,78.961,0,0,1,9.468.28" transform="translate(21.172 18.067)" fill="#fff"/>
        <path id="Trazado_721" data-name="Trazado 721" d="M236.523,198.189a11.455,11.455,0,0,1-6.676-.209,15.947,15.947,0,0,1,3.34.033,15.929,15.929,0,0,1,3.336.176" transform="translate(21.7 18.685)" fill="#fff"/>
        <path id="Trazado_722" data-name="Trazado 722" d="M228.295,189.954a1.277,1.277,0,0,1-.02-.313v-.916c.012-.847.031-2.026.054-3.522.072-3.1.176-7.513.3-12.947.073-2.737.152-5.729.238-8.939a6.028,6.028,0,0,0-.315-2.315,1.521,1.521,0,0,0-1.667-1.11,2.208,2.208,0,0,0-1.469,1.657,3.4,3.4,0,0,0,.305,2.41,5.493,5.493,0,0,0,4.23,2.814,5.608,5.608,0,0,0,4.92-1.973,8.393,8.393,0,0,0,2.072-5.293,5.01,5.01,0,0,0-.578-2.8,2.06,2.06,0,0,0-2.318-.993,2.089,2.089,0,0,0-1.109,2.273,5.665,5.665,0,0,0,1.314,2.571,10.5,10.5,0,0,0,4.56,3.525,5.916,5.916,0,0,0,2.744.326,5.546,5.546,0,0,0,2.494-1.041,4.335,4.335,0,0,0,1.565-2.078,3.143,3.143,0,0,0-.144-2.46,2.12,2.12,0,0,0-1.868-1.273,2.6,2.6,0,0,0-1.961,1.173c-.9,1.343-.913,3.11-1.149,4.671-.348,3.188-.576,6.175-.781,8.9-.367,5.422-.664,9.825-.873,12.917-.1,1.493-.178,2.668-.235,3.512-.031.375-.055.675-.074.914a1.322,1.322,0,0,1-.044.31,1.294,1.294,0,0,1-.014-.313c0-.239.01-.541.018-.916.031-.846.074-2.024.129-3.518.132-3.056.34-7.475.692-12.934.182-2.728.385-5.717.715-8.923.1-.8.177-1.613.317-2.446a6.047,6.047,0,0,1,.892-2.461,3.091,3.091,0,0,1,2.36-1.4,2.635,2.635,0,0,1,2.346,1.546,3.669,3.669,0,0,1,.185,2.868,4.875,4.875,0,0,1-1.747,2.345,6.071,6.071,0,0,1-2.741,1.151,6.454,6.454,0,0,1-3.007-.346,11.028,11.028,0,0,1-4.822-3.7,6.179,6.179,0,0,1-1.432-2.84,2.646,2.646,0,0,1,1.473-2.888,2.618,2.618,0,0,1,3,1.225,5.552,5.552,0,0,1,.662,3.119,8.944,8.944,0,0,1-2.225,5.649,6.16,6.16,0,0,1-5.4,2.14,6.016,6.016,0,0,1-4.633-3.123,3.918,3.918,0,0,1-.328-2.78,2.7,2.7,0,0,1,1.868-2.01,1.827,1.827,0,0,1,1.4.313,2.354,2.354,0,0,1,.815,1.11,6.478,6.478,0,0,1,.335,2.511c-.111,3.21-.213,6.2-.308,8.938-.2,5.432-.369,9.842-.485,12.94-.068,1.495-.121,2.671-.16,3.517-.024.374-.042.675-.057.914a1.263,1.263,0,0,1-.038.311" transform="translate(21.223 14.639)" fill="#fff"/>
        <path id="Trazado_723" data-name="Trazado 723" d="M241.35,194.922a52.019,52.019,0,0,1-7.681.285,52.025,52.025,0,0,1-7.683-.285,52.022,52.022,0,0,1,7.683-.285,52.015,52.015,0,0,1,7.681.285" transform="translate(21.336 18.376)" fill="#fff"/>
        <path id="Trazado_728" data-name="Trazado 728" d="M140.854,201.439a19.078,19.078,0,0,1-2-6.256,19.032,19.032,0,0,1,2,6.256" transform="translate(13.106 18.428)" fill="#263238"/>
        <path id="Trazado_729" data-name="Trazado 729" d="M151.855,223.277a28.073,28.073,0,0,1-3.688-5.432,28.174,28.174,0,0,1-2.84-5.921,58.2,58.2,0,0,1,3.335,5.636,58.645,58.645,0,0,1,3.193,5.716" transform="translate(13.72 20.008)" fill="#263238"/>
        <path id="Trazado_730" data-name="Trazado 730" d="M167.689,241.18a43.321,43.321,0,0,1-9.177-9.341,59.838,59.838,0,0,1,4.64,4.619,60.265,60.265,0,0,1,4.536,4.721" transform="translate(14.965 21.888)" fill="#263238"/>
        <path id="Trazado_731" data-name="Trazado 731" d="M187.65,254.327a42.227,42.227,0,0,1-11.317-6.589,61.467,61.467,0,0,1,5.689,3.244,62.433,62.433,0,0,1,5.629,3.346" transform="translate(16.648 23.389)" fill="#263238"/>
        <path id="Trazado_732" data-name="Trazado 732" d="M210.477,261.345a36.108,36.108,0,0,1-6.487-1.023,37.826,37.826,0,0,1-6.237-2.055,37.883,37.883,0,0,1,6.372,1.5,39.961,39.961,0,0,1,6.352,1.577" transform="translate(18.67 24.381)" fill="#263238"/>
        <path id="Trazado_733" data-name="Trazado 733" d="M234.376,261.612a28.321,28.321,0,0,1-6.519.774,27.9,27.9,0,0,1-6.563-.2,59.226,59.226,0,0,1,6.538-.369,57.452,57.452,0,0,1,6.545-.2" transform="translate(20.893 24.694)" fill="#263238"/>
        <path id="Trazado_734" data-name="Trazado 734" d="M257.666,256.45a46.509,46.509,0,0,1-12.611,3.532,55.239,55.239,0,0,1,6.278-1.868,54.6,54.6,0,0,1,6.333-1.664" transform="translate(23.136 24.21)" fill="#263238"/>
        <path id="Trazado_735" data-name="Trazado 735" d="M279.217,246.315a45.554,45.554,0,0,1-11.534,6.209,55.728,55.728,0,0,1,5.722-3.19,56.685,56.685,0,0,1,5.812-3.018" transform="translate(25.272 23.254)" fill="#263238"/>
        <path id="Trazado_736" data-name="Trazado 736" d="M297.609,231.286a26.852,26.852,0,0,1-4.449,4.831,27.317,27.317,0,0,1-5.155,4.071,61.986,61.986,0,0,1,4.767-4.489,64.867,64.867,0,0,1,4.836-4.413" transform="translate(27.191 21.836)" fill="#263238"/>
        <path id="Trazado_737" data-name="Trazado 737" d="M310.532,211.436a27.325,27.325,0,0,1-2.692,5.989,25.634,25.634,0,0,1-3.63,5.473c-.134-.091,1.4-2.581,3.131-5.747a61.555,61.555,0,0,1,3.191-5.715" transform="translate(28.72 19.962)" fill="#263238"/>
        <path id="Trazado_738" data-name="Trazado 738" d="M318.537,188.957a37.8,37.8,0,0,1-1.775,6.313,37.748,37.748,0,0,1-2.316,6.134,38.071,38.071,0,0,1,1.775-6.314,38,38,0,0,1,2.316-6.133" transform="translate(29.686 17.84)" fill="#263238"/>
        <path id="Trazado_739" data-name="Trazado 739" d="M326.222,166.277c.172.068-.839,2.82-2.016,6.236a37.824,37.824,0,0,1-2.418,6.09,37.915,37.915,0,0,1,1.881-6.284c.574-1.718,1.207-3.233,1.679-4.323a6.535,6.535,0,0,1,.873-1.719" transform="translate(30.379 15.698)" fill="#263238"/>
        <path id="Trazado_740" data-name="Trazado 740" d="M337,144.853a58.555,58.555,0,0,1-3.1,5.769,53.776,53.776,0,0,1-3.27,5.676,29.4,29.4,0,0,1,2.771-5.951,28.015,28.015,0,0,1,3.6-5.493" transform="translate(31.215 13.676)" fill="#263238"/>
        <path id="Trazado_741" data-name="Trazado 741" d="M353.246,127.182c.1.134-2.2,1.946-4.84,4.4s-4.649,4.582-4.775,4.472a24.651,24.651,0,0,1,4.389-4.89,23.66,23.66,0,0,1,5.226-3.98" transform="translate(32.442 12.007)" fill="#263238"/>
        <path id="Trazado_742" data-name="Trazado 742" d="M375.04,117.086c.042.159-2.76,1.013-6.152,2.233s-6.095,2.349-6.164,2.2a25.539,25.539,0,0,1,5.971-2.736,26.37,26.37,0,0,1,6.344-1.7" transform="translate(34.245 11.052)" fill="#263238"/>
      </g>
    </g>
    <g id="Grupo_19507" data-name="Grupo 19507" transform="translate(78.973 279.474)">
      <g id="Grupo_19506" data-name="Grupo 19506" clip-path="url(#clip-path-4)">
        <path id="Trazado_748" data-name="Trazado 748" d="M256.553,429.633l16.422,5.761-.175,15.793c-7.862,2.217-8.963,6.193-8.963,6.193l16.435-.375,14.3-29.077-11.313-7.4-21.145-9.25" transform="translate(24.222 38.83)" fill="#ef6800"/>
        <g id="Grupo_19490" data-name="Grupo 19490" transform="translate(288.058 465.183)" opacity="0.6">
          <g id="Grupo_19489" data-name="Grupo 19489">
            <g id="Grupo_19488" data-name="Grupo 19488" clip-path="url(#clip-path-5)">
              <path id="Trazado_749" data-name="Trazado 749" d="M293.941,426.627l-14.3,29.077-16.435.375,1.8-2.512,13.346-1.04,13.184-27.475Z" transform="translate(-263.208 -425.053)" fill="#fff"/>
            </g>
          </g>
        </g>
        <path id="Trazado_750" data-name="Trazado 750" d="M271.347,441.231c.126.165,1.06-.394,2.332-.387,1.273-.028,2.217.516,2.34.348.151-.127-.8-1.091-2.345-1.07-1.549.005-2.481.985-2.327,1.11" transform="translate(25.617 41.553)" fill="#263238"/>
        <path id="Trazado_751" data-name="Trazado 751" d="M271.511,437.72c.167.113.877-.874,2.182-1.159s2.364.291,2.468.118c.054-.076-.141-.346-.608-.588a3.077,3.077,0,0,0-3.742.837c-.32.418-.381.746-.3.791" transform="translate(25.631 41.143)" fill="#263238"/>
        <path id="Trazado_752" data-name="Trazado 752" d="M271.311,433.148c.182.086.721-.876,1.857-1.3,1.13-.437,2.171-.072,2.251-.257.042-.084-.172-.309-.63-.468a2.852,2.852,0,0,0-3.316,1.254c-.237.425-.248.733-.162.768" transform="translate(25.61 40.69)" fill="#263238"/>
        <path id="Trazado_753" data-name="Trazado 753" d="M270.235,433.312c.2-.049.077-1.085.57-2.2.461-1.125,1.295-1.751,1.191-1.93-.057-.189-1.276.272-1.855,1.647s-.083,2.57.094,2.48" transform="translate(25.478 40.516)" fill="#263238"/>
        <path id="Trazado_754" data-name="Trazado 754" d="M268.627,431.874a6.988,6.988,0,0,0,.386-2.206c.073-.791.147-1.589.221-2.407a5.239,5.239,0,0,0,0-1.531,1.335,1.335,0,0,0-.585-.816,1.028,1.028,0,0,0-1.118.045,3.046,3.046,0,0,0-.934,1.456,5.491,5.491,0,0,0,.137,3.974c.586,1.341,1.411,1.821,1.441,1.761a18.086,18.086,0,0,1-.963-1.942,5.67,5.67,0,0,1-.248-2.256,5.274,5.274,0,0,1,.3-1.294,2.616,2.616,0,0,1,.675-1.1.294.294,0,0,1,.344-.025.632.632,0,0,1,.27.382,5.412,5.412,0,0,1,.019,1.308c-.022.821-.044,1.622-.066,2.415a7.014,7.014,0,0,0,.124,2.237" transform="translate(25.141 40.103)" fill="#263238"/>
        <path id="Trazado_755" data-name="Trazado 755" d="M268.733,432.032c.065-.043-.42-.761-1.684-1.174a4.107,4.107,0,0,0-4.663,1.665.759.759,0,0,0,.071.637.921.921,0,0,0,.431.352,2.531,2.531,0,0,0,.769.155,7.367,7.367,0,0,0,1.337,0,7.087,7.087,0,0,0,2.176-.554c1.176-.517,1.721-1.114,1.667-1.177-.066-.1-.7.337-1.845.7a8.114,8.114,0,0,1-2.046.368,7.669,7.669,0,0,1-1.218-.037,2.091,2.091,0,0,1-.553-.109c-.142-.085-.1-.059-.1-.109a1.3,1.3,0,0,1,.325-.391,3.753,3.753,0,0,1,.483-.386,4.011,4.011,0,0,1,3.04-.614,15.592,15.592,0,0,1,1.811.68" transform="translate(24.769 40.661)" fill="#263238"/>
        <g id="Grupo_19493" data-name="Grupo 19493" transform="translate(305.669 464.56)" opacity="0.6">
          <g id="Grupo_19492" data-name="Grupo 19492">
            <g id="Grupo_19491" data-name="Grupo 19491" clip-path="url(#clip-path-6)">
              <path id="Trazado_756" data-name="Trazado 756" d="M279.3,426.476a1.95,1.95,0,1,0,1.908-1.992,1.95,1.95,0,0,0-1.908,1.992" transform="translate(-279.3 -424.483)" fill="#fff"/>
            </g>
          </g>
        </g>
        <path id="Trazado_757" data-name="Trazado 757" d="M181.44,422.013l.223,21.517s-21.8,7.454-22.143,11.434l41.736,1.066,1.029-33.542Z" transform="translate(15.061 39.843)" fill="#ef6800"/>
        <g id="Grupo_19496" data-name="Grupo 19496" transform="translate(207.6 481.815)" opacity="0.6">
          <g id="Grupo_19495" data-name="Grupo 19495">
            <g id="Grupo_19494" data-name="Grupo 19494" clip-path="url(#clip-path-7)">
              <path id="Trazado_758" data-name="Trazado 758" d="M191.767,440.331a1.7,1.7,0,0,1,1.128,1.975,1.639,1.639,0,0,1-1.948,1.136,1.8,1.8,0,0,1-1.184-2.1,1.7,1.7,0,0,1,2.157-.958" transform="translate(-189.691 -440.25)" fill="#fff"/>
            </g>
          </g>
        </g>
        <g id="Grupo_19499" data-name="Grupo 19499" transform="translate(174.57 492.49)" opacity="0.6">
          <g id="Grupo_19498" data-name="Grupo 19498">
            <g id="Grupo_19497" data-name="Grupo 19497" clip-path="url(#clip-path-8)">
              <path id="Trazado_759" data-name="Trazado 759" d="M201.259,453.389,201.23,450l-40.006.244s-1.879.761-1.7,2.075Z" transform="translate(-159.51 -450.004)" fill="#fff"/>
            </g>
          </g>
        </g>
        <path id="Trazado_760" data-name="Trazado 760" d="M179.14,441.48c0,.2,1.018.323,2,1,1,.656,1.5,1.551,1.689,1.475.188-.035-.084-1.261-1.293-2.065s-2.439-.6-2.4-.414" transform="translate(16.913 41.665)" fill="#263238"/>
        <path id="Trazado_761" data-name="Trazado 761" d="M175.1,443.024c-.051.2.822.566,1.493,1.446.695.859.846,1.8,1.049,1.793.19.036.362-1.154-.492-2.232s-2.04-1.2-2.05-1.007" transform="translate(16.531 41.819)" fill="#263238"/>
        <path id="Trazado_762" data-name="Trazado 762" d="M172.836,448.054c.184.048.494-.963,0-2.092s-1.437-1.6-1.527-1.43c-.12.165.484.779.876,1.713.414.924.45,1.785.652,1.81" transform="translate(16.172 41.966)" fill="#263238"/>
        <path id="Trazado_763" data-name="Trazado 763" d="M179.591,437.038c.081.188,1.023-.069,2.172.038,1.152.084,2.039.494,2.149.322.121-.145-.734-.922-2.09-1.029s-2.328.506-2.232.669" transform="translate(16.955 41.197)" fill="#263238"/>
        <g id="Grupo_19502" data-name="Grupo 19502" transform="translate(196.55 466.118)" opacity="0.3">
          <g id="Grupo_19501" data-name="Grupo 19501">
            <g id="Grupo_19500" data-name="Grupo 19500" clip-path="url(#clip-path-9)">
              <path id="Trazado_764" data-name="Trazado 764" d="M179.594,425.908l.035,3.835,20.517.337.115-3.452Z" transform="translate(-179.594 -425.908)"/>
            </g>
          </g>
        </g>
        <path id="Trazado_765" data-name="Trazado 765" d="M179.622,433.291a3.915,3.915,0,0,0,2.09.043,9.35,9.35,0,0,0,2.2-.616,9.671,9.671,0,0,0,1.217-.606,2.547,2.547,0,0,0,.643-.475.891.891,0,0,0,.122-1.082,1.118,1.118,0,0,0-.881-.488,2.707,2.707,0,0,0-.787.088,7.534,7.534,0,0,0-1.311.413,7.388,7.388,0,0,0-1.96,1.216c-.99.872-1.341,1.625-1.272,1.667.09.069.578-.557,1.582-1.272a8.333,8.333,0,0,1,1.891-1,7.668,7.668,0,0,1,1.209-.339c.444-.105.821-.1.929.1.039.077.044.106-.051.233a2.119,2.119,0,0,1-.474.347,11.037,11.037,0,0,1-1.121.6,11.522,11.522,0,0,1-2.04.722,14.356,14.356,0,0,0-1.992.45" transform="translate(16.958 40.603)" fill="#263238"/>
        <path id="Trazado_766" data-name="Trazado 766" d="M180.085,433.861a3.335,3.335,0,0,0,.6-2.005,6.816,6.816,0,0,0-.227-2.3,6.891,6.891,0,0,0-.5-1.283,1.729,1.729,0,0,0-1.307-1.089.976.976,0,0,0-.888.56,2.808,2.808,0,0,0-.234.761,4.642,4.642,0,0,0-.037,1.409,4.808,4.808,0,0,0,.837,2.182c.788,1.1,1.632,1.367,1.651,1.3.07-.1-.63-.511-1.228-1.567a4.813,4.813,0,0,1-.611-1.981,4.36,4.36,0,0,1,.069-1.207c.077-.441.253-.794.417-.745.208,0,.553.345.714.7a6.974,6.974,0,0,1,.489,1.147,7.469,7.469,0,0,1,.351,2.1c.026,1.227-.211,1.984-.1,2.018" transform="translate(16.754 40.332)" fill="#263238"/>
        <path id="Trazado_767" data-name="Trazado 767" d="M277.071,416.271,229.01,398.4l50.526-7.092,2.543-24.613L187.6,374.938l-13.343,19.207,3.514,24.1,92.052,23.4Z" transform="translate(16.452 34.62)" fill="#263238"/>
        <path id="Trazado_768" data-name="Trazado 768" d="M175.487,437.393l-4.6-87.961a24.741,24.741,0,0,1,32.555-22.75l61.3,20.438,33.644,8.65s5.73,14.138,2.362,25.121c-3.3,10.751-15.08,17.9-25.448,14.829-12.876-3.816-71.994-29.239-71.994-29.239v71.627Z" transform="translate(16.134 30.723)" fill="#263238"/>
        <path id="Trazado_769" data-name="Trazado 769" d="M271.635,392.452a1.979,1.979,0,0,1-.366-.12l-1.051-.4-4.02-1.608L251.456,384.3l-48.561-20.04-2.471-1.025.394-.263c-.034,19.9-.065,37.794-.088,50.751-.037,6.437-.068,11.647-.089,15.286-.023,1.774-.04,3.164-.053,4.146-.012.45-.021.805-.028,1.077a1.715,1.715,0,0,1-.028.367,1.935,1.935,0,0,1-.028-.367c-.007-.271-.015-.627-.027-1.077-.012-.982-.03-2.372-.053-4.146-.021-3.639-.051-8.848-.09-15.286-.022-12.957-.053-30.849-.086-50.751v-.427l.394.164,2.472,1.024,48.5,20.193,14.674,6.181,3.979,1.707,1.029.457a1.989,1.989,0,0,1,.344.174" transform="translate(18.906 34.229)" fill="#455a64"/>
        <path id="Trazado_770" data-name="Trazado 770" d="M213.746,389.966a20.123,20.123,0,0,1,11.522,6.38c-.119.131-2.3-1.908-5.5-3.661-3.181-1.778-6.07-2.55-6.021-2.72" transform="translate(20.18 36.815)" fill="#455a64"/>
        <path id="Trazado_771" data-name="Trazado 771" d="M195.636,352.067a43.873,43.873,0,0,1,5.527,12.328c-.153.055-1.279-2.75-2.806-6.145s-2.864-6.1-2.721-6.182" transform="translate(18.469 33.239)" fill="#455a64"/>
        <path id="Trazado_772" data-name="Trazado 772" d="M197.677,316.825l-10.84-2.027-11.39,11.618,2.1,7.4,13.279-4.89Z" transform="translate(16.564 29.721)" fill="#ffbe9d"/>
        <path id="Trazado_773" data-name="Trazado 773" d="M160.23,198.82l-2.934.248s-5.284.863-5.284.982-2.32,3.36-2.326,3.371l-2.128,3.288a3.06,3.06,0,0,0,2.971-.547l-.742,1.653a3.3,3.3,0,0,0,4.082-1.585,38.635,38.635,0,0,1,2.3-3.272l.962-.088c.08.2,3.79,5.427,3.868,5.308s3.158-3.093,3.158-3.093Z" transform="translate(13.931 18.771)" fill="#eb996e"/>
        <path id="Trazado_774" data-name="Trazado 774" d="M168.06,221.848l.867-16.239-8.228-9.324-9.051.548-3.7,2.584c.19.9,2.756,1.509,5.526.707a13.992,13.992,0,0,1,5.7-.192l3.486,6.074-2.3,2.54,2.953,15.576Z" transform="translate(13.968 18.532)" fill="#ffbe9d"/>
        <path id="Trazado_775" data-name="Trazado 775" d="M144.627,200.093h29.416a1.344,1.344,0,1,1,0,2.688H144.627l-2.885-1.344Z" transform="translate(13.382 18.891)" fill="#263238"/>
        <path id="Trazado_776" data-name="Trazado 776" d="M158.456,226.058l-3-7.37a6.939,6.939,0,0,1-.5-2.949c.128-2.647.327-7.964-.081-9.188-.548-1.645-2.743-7.268-1.508-8.091s2.943-1.1,4.146,2.194,4.905,10.422,4.905,10.422l2.8,11.747Z" transform="translate(14.445 18.687)" fill="#ffbe9d"/>
        <path id="Trazado_777" data-name="Trazado 777" d="M162.06,210.362a22.152,22.152,0,0,1-1.7-3.144c-.985-1.95-2.321-4.786-3.747-7.718a2.162,2.162,0,0,0-1.739-1.135,1.582,1.582,0,0,0-1.463,1.092,4.2,4.2,0,0,0,.058,1.925c.117.631.254,1.214.394,1.741.573,2.112,1.175,3.345,1.09,3.384a2.782,2.782,0,0,1-.5-.827,17.134,17.134,0,0,1-.976-2.443c-.169-.531-.331-1.12-.471-1.761a4.516,4.516,0,0,1-.1-2.17,2.111,2.111,0,0,1,1.952-1.5,2.692,2.692,0,0,1,2.233,1.383c1.519,3.11,2.722,5.824,3.632,7.856a22.277,22.277,0,0,1,1.338,3.316" transform="translate(14.427 18.675)" fill="#eb996e"/>
        <path id="Trazado_778" data-name="Trazado 778" d="M289.556,354.114l-3-5.263-32.079-8.03,3.778,6.524Z" transform="translate(24.026 32.178)" fill="#ffbe9d"/>
        <path id="Trazado_779" data-name="Trazado 779" d="M155.432,224.208l20.192,47.842a18.586,18.586,0,0,0,10.062,9.964l43.565,17.89,10.142-28.065-42.425-15.022-27.559-39.294Z" transform="translate(14.675 20.537)" fill="#a2b8d5"/>
        <path id="Trazado_780" data-name="Trazado 780" d="M215.779,268.029c.045,1.122-4.708,35.936-4.708,43.049s13.62,14.831,13.62,14.831L239.6,357.573h53.116l-18.159-34.1-8.209-27.312a64.333,64.333,0,0,0-16.485-27.333L241,262.9Z" transform="translate(19.928 24.821)" fill="#a2b8d5"/>
        <path id="Trazado_781" data-name="Trazado 781" d="M233.243,293.976l8.922,37.431L197.171,318.73,189.5,332.282l58.546,26.664a16.457,16.457,0,0,0,22.764-19.057L257.7,288.674a12.522,12.522,0,0,0-24.458,5.3" transform="translate(17.891 26.365)" fill="#a2b8d5"/>
        <path id="Trazado_782" data-name="Trazado 782" d="M224.711,324.687a2.07,2.07,0,0,1-.518-.221c-.33-.161-.811-.414-1.418-.757a41,41,0,0,1-4.935-3.272,20.12,20.12,0,0,1-5.807-6.6c-1.441-3.115-1.34-6.947-.813-10.7.544-3.788,1.322-7.316,1.78-10.578.5-3.251.844-6.194,1.027-8.673s.222-4.492.216-5.882-.046-2.161,0-2.165a2.053,2.053,0,0,1,.092.555c.045.366.089.906.127,1.6a54.45,54.45,0,0,1-.035,5.915c-.131,2.5-.437,5.458-.908,8.725-.43,3.272-1.2,6.833-1.735,10.576-.524,3.718-.618,7.441.725,10.4a20.232,20.232,0,0,0,5.583,6.505,49.618,49.618,0,0,0,4.8,3.4,21.615,21.615,0,0,1,1.822,1.169" transform="translate(19.908 26.043)" fill="#263238"/>
        <path id="Trazado_783" data-name="Trazado 783" d="M247.241,283.8c-.072.167-2.6-1.247-6.06-1.457-3.458-.258-6.152.8-6.2.628a12.5,12.5,0,0,1,12.261.829" transform="translate(22.185 26.6)" fill="#263238"/>
        <path id="Trazado_784" data-name="Trazado 784" d="M242.7,265.181a5.029,5.029,0,0,1-.812.908c-.547.558-1.36,1.345-2.383,2.3-2.043,1.909-4.945,4.463-8.275,7.133s-6.457,4.945-8.765,6.523c-1.154.79-2.1,1.413-2.763,1.826a4.959,4.959,0,0,1-1.063.594,5.042,5.042,0,0,1,.938-.778l2.654-1.969c2.244-1.66,5.321-3.979,8.644-6.64s6.252-5.16,8.361-6.989l2.5-2.162a5.023,5.023,0,0,1,.963-.745" transform="translate(20.642 25.036)" fill="#263238"/>
        <path id="Trazado_785" data-name="Trazado 785" d="M193.943,253.526c.057.158-1.576.85-3.383,2.041s-3.1,2.395-3.226,2.279a11.306,11.306,0,0,1,6.609-4.32" transform="translate(17.686 23.934)" fill="#263238"/>
        <path id="Trazado_786" data-name="Trazado 786" d="M235.5,308.729a3.569,3.569,0,0,1-.979.314,18.994,18.994,0,0,1-2.759.484,25.462,25.462,0,0,1-4.161.113,26.777,26.777,0,0,1-9.852-2.469,25.42,25.42,0,0,1-3.616-2.062,18.8,18.8,0,0,1-2.205-1.727c-.487-.449-.741-.709-.716-.739.069-.08,1.163.886,3.141,2.129a28.987,28.987,0,0,0,17.374,4.354c2.33-.163,3.751-.5,3.774-.4" transform="translate(19.941 28.573)" fill="#fafafa"/>
        <path id="Trazado_787" data-name="Trazado 787" d="M237.341,323.475a5.6,5.6,0,0,1-2.017.368,18.476,18.476,0,0,1-9.617-1.959,5.619,5.619,0,0,1-1.714-1.127c.085-.162,2.774,1.46,6.5,2.2,3.72.778,6.83.338,6.844.52" transform="translate(21.147 30.282)" fill="#fafafa"/>
        <path id="Trazado_788" data-name="Trazado 788" d="M259.515,313.9a3.2,3.2,0,0,1-.835.5,24.986,24.986,0,0,1-2.415,1.086,37.026,37.026,0,0,1-17.189,2.379,25.246,25.246,0,0,1-2.62-.389,3.223,3.223,0,0,1-.939-.256c.015-.093,1.379.112,3.591.243a43.566,43.566,0,0,0,17.017-2.355c2.094-.727,3.35-1.295,3.391-1.209" transform="translate(22.236 29.635)" fill="#fafafa"/>
        <path id="Trazado_789" data-name="Trazado 789" d="M255.79,297.269c-.019.09-1.393-.169-3.627-.434a56.018,56.018,0,0,0-17.477.63c-2.21.426-3.561.781-3.586.694a3.338,3.338,0,0,1,.916-.368c.6-.206,1.483-.455,2.585-.72a45.565,45.565,0,0,1,17.618-.635c1.118.185,2.018.37,2.631.532a3.309,3.309,0,0,1,.94.3" transform="translate(21.819 27.933)" fill="#fafafa"/>
        <path id="Trazado_790" data-name="Trazado 790" d="M264.408,345.55a5.685,5.685,0,0,1-1.278-.253,32.558,32.558,0,0,1-3.393-1.048,44.675,44.675,0,0,1-19-13.341,32.8,32.8,0,0,1-2.138-2.833,5.683,5.683,0,0,1-.672-1.118c.084-.059,1.144,1.46,3.116,3.689a49.613,49.613,0,0,0,18.836,13.226c2.767,1.1,4.555,1.579,4.528,1.679" transform="translate(22.463 30.868)" fill="#fafafa"/>
        <path id="Trazado_791" data-name="Trazado 791" d="M225.272,345.173a12.135,12.135,0,0,1-.134-3.114,34.643,34.643,0,0,1,3.8-14.477,12.2,12.2,0,0,1,1.643-2.647,27.211,27.211,0,0,1-1.28,2.824,42.882,42.882,0,0,0-3.755,14.325,27.606,27.606,0,0,1-.269,3.09" transform="translate(21.254 30.678)" fill="#fafafa"/>
        <path id="Trazado_792" data-name="Trazado 792" d="M200.514,333.461a8.8,8.8,0,0,1,.023-2.62,14.878,14.878,0,0,1,1.941-6.035,19.437,19.437,0,0,1,4.229-4.721,10.131,10.131,0,0,1,2.128-1.522,14.451,14.451,0,0,1-1.86,1.823,23.258,23.258,0,0,0-4.006,4.714,16.707,16.707,0,0,0-2.033,5.8,18.167,18.167,0,0,1-.421,2.565" transform="translate(18.924 30.076)" fill="#fafafa"/>
        <path id="Trazado_793" data-name="Trazado 793" d="M284.427,343.175a16.914,16.914,0,0,1-3.162,1.394,59.048,59.048,0,0,1-7.991,2.4,34.219,34.219,0,0,1-8.308.9,13.622,13.622,0,0,1-1.445-.1,8.557,8.557,0,0,1-1.082-.151,2.926,2.926,0,0,1-.9-.236c.016-.1,1.319.116,3.432.081a41.439,41.439,0,0,0,8.182-1.058c3.155-.7,5.961-1.564,7.98-2.222a26.351,26.351,0,0,1,3.3-1.014" transform="translate(24.692 32.399)" fill="#fafafa"/>
        <path id="Trazado_794" data-name="Trazado 794" d="M272.425,323.406c.061.028-.282.692-1.2,1.366a16.387,16.387,0,0,1-3.864,2.029,24.275,24.275,0,0,1-4.174,1.23,6.747,6.747,0,0,1-1.328.137c-.318.009-.511-.111-.484-.13.033-.042.652-.081,1.72-.4,1.054-.3,2.5-.764,4.058-1.368a23.858,23.858,0,0,0,3.841-1.831c.934-.558,1.354-1.082,1.431-1.033" transform="translate(24.676 30.533)" fill="#fafafa"/>
        <path id="Trazado_795" data-name="Trazado 795" d="M265.411,303.327c.028-.005.017.186-.167.394a3.667,3.667,0,0,1-.879.711,17.393,17.393,0,0,1-3.306,1.542,19.036,19.036,0,0,1-3.518.951c-.929.159-1.541.035-1.525-.042a14.7,14.7,0,0,1,1.444-.354c.882-.23,2.089-.616,3.4-1.091a34.438,34.438,0,0,0,3.3-1.357,6.3,6.3,0,0,0,.924-.521c.2-.133.268-.25.322-.234" transform="translate(24.171 28.638)" fill="#fafafa"/>
        <path id="Trazado_796" data-name="Trazado 796" d="M230.4,293.062a9.145,9.145,0,0,1-2.573.1,32.947,32.947,0,0,1-12.044-2.855,9.138,9.138,0,0,1-2.254-1.244c.077-.165,3.592,1.6,8.273,2.688,4.672,1.125,8.605,1.129,8.6,1.311" transform="translate(20.159 27.29)" fill="#fafafa"/>
        <path id="Trazado_797" data-name="Trazado 797" d="M258.395,283.675c.108.155-1.465,1.219-3.6,2.064-2.115.885-3.984,1.225-4.014,1.036-.02-.125,1.706-.689,3.8-1.565,2.107-.836,3.736-1.638,3.811-1.535" transform="translate(23.677 26.781)" fill="#fafafa"/>
        <path id="Trazado_798" data-name="Trazado 798" d="M235.318,270.678a4.756,4.756,0,0,1,1.522,1.208,13.877,13.877,0,0,1,3.838,8.424,4.729,4.729,0,0,1-.086,1.941c-.183.016-.115-2.987-1.628-6.247-1.467-3.28-3.778-5.2-3.645-5.327" transform="translate(22.216 25.555)" fill="#fafafa"/>
        <path id="Trazado_799" data-name="Trazado 799" d="M203.965,287.314a3.928,3.928,0,0,1-.5-1.032,17.667,17.667,0,0,1-.872-3A27.188,27.188,0,0,1,202.667,273a54.153,54.153,0,0,1,2.98-9.842c.484-1.222.9-2.2,1.2-2.872a4.377,4.377,0,0,1,.519-1.02,4.493,4.493,0,0,1-.312,1.1q-.427,1.218-1.025,2.931a67.062,67.062,0,0,0-2.8,9.8,29.6,29.6,0,0,0-.24,10.106c.421,2.571,1.078,4.071.977,4.108" transform="translate(19.084 24.478)" fill="#fafafa"/>
        <path id="Trazado_800" data-name="Trazado 800" d="M180.292,277.242a4.207,4.207,0,0,1,.192-1.1,26.7,26.7,0,0,1,.863-2.925,37.46,37.46,0,0,1,11.4-16.355,26.606,26.606,0,0,1,2.446-1.823,4.3,4.3,0,0,1,.969-.563c.057.082-1.243.995-3.152,2.691a42.2,42.2,0,0,0-11.281,16.19c-.93,2.377-1.336,3.914-1.433,3.888" transform="translate(17.021 24.025)" fill="#fafafa"/>
        <path id="Trazado_801" data-name="Trazado 801" d="M185.685,240.154c.005.1-1.247.16-3.171.707a29.688,29.688,0,0,0-7.111,3.175,33.667,33.667,0,0,0-6.176,4.767c-1.425,1.407-2.142,2.432-2.224,2.376-.033-.022.121-.294.431-.773a8.668,8.668,0,0,1,.612-.836,12.433,12.433,0,0,1,.89-1.046,28.333,28.333,0,0,1,6.172-4.975,25.519,25.519,0,0,1,7.306-3.078,10.368,10.368,0,0,1,1.353-.251,7.46,7.46,0,0,1,1.032-.1,2.653,2.653,0,0,1,.885.034" transform="translate(15.767 22.669)" fill="#fafafa"/>
        <path id="Trazado_802" data-name="Trazado 802" d="M176.3,226.56c0,.2-4.313-.6-9.408.722-5.113,1.259-8.525,4.009-8.622,3.837a9.029,9.029,0,0,1,2.221-1.729,22.181,22.181,0,0,1,13.032-3.3,9.082,9.082,0,0,1,2.777.466" transform="translate(14.943 21.342)" fill="#fafafa"/>
        <path id="Trazado_803" data-name="Trazado 803" d="M233.243,292.706a4.261,4.261,0,0,1,.221.715c.136.52.316,1.213.545,2.087.467,1.875,1.126,4.519,1.945,7.808l6.48,26.757.112.46-.456-.128-11.472-3.224-33.5-9.522.235-.1-5.693,9.869q-.995,1.689-1.574,2.669c-.17.277-.309.5-.421.687a1,1,0,0,1-.162.224.955.955,0,0,1,.109-.254c.1-.193.222-.427.372-.716q.54-1,1.479-2.723c1.331-2.4,3.214-5.788,5.532-9.96l.078-.141.156.044,33.546,9.37,11.467,3.24-.345.331c-2.517-10.734-4.71-20.082-6.286-26.8-.753-3.305-1.357-5.961-1.786-7.845-.19-.883-.341-1.585-.455-2.109a4.346,4.346,0,0,1-.125-.738" transform="translate(17.891 27.635)" fill="#263238"/>
        <path id="Trazado_804" data-name="Trazado 804" d="M252,290.577a3.069,3.069,0,0,1,.219.642c.136.486.309,1.105.521,1.868.447,1.7,1.062,4.039,1.812,6.9,1.493,5.9,3.524,13.934,5.769,22.81,1.1,4.464,2.181,8.7,3.092,12.587a29.669,29.669,0,0,1,.858,10.565,14.887,14.887,0,0,1-2.513,6.68,7.867,7.867,0,0,1-1.8,1.912,21.089,21.089,0,0,0,1.614-2.038,15.254,15.254,0,0,0,2.3-6.606,30.037,30.037,0,0,0-.971-10.4c-.965-3.87-2.021-8.111-3.132-12.566-2.182-8.891-4.157-16.938-5.608-22.85-.677-2.877-1.232-5.231-1.636-6.943-.17-.774-.309-1.4-.417-1.894a3.009,3.009,0,0,1-.107-.67" transform="translate(23.791 27.434)" fill="#263238"/>
        <g id="Grupo_19505" data-name="Grupo 19505" transform="translate(279.07 331.213)" opacity="0.3">
          <g id="Grupo_19504" data-name="Grupo 19504">
            <g id="Grupo_19503" data-name="Grupo 19503" clip-path="url(#clip-path-10)">
              <path id="Trazado_805" data-name="Trazado 805" d="M259.878,353.821c6.588.607,10.411-3.151,11.116-8.291.389-2.831-.547-5.659-1.47-8.365-4.038-11.84-8.122-23.781-14.531-34.525,2.42,10.751,5.508,21.075,7.928,31.827a33.344,33.344,0,0,1,1.023,9.156,16.49,16.49,0,0,1-4.067,10.2" transform="translate(-254.995 -302.64)" fill="#7e92ad"/>
            </g>
          </g>
        </g>
        <path id="Trazado_806" data-name="Trazado 806" d="M237.309,264.719a13.4,13.4,0,0,0,17.025-10.179,7.874,7.874,0,0,0,6.792,1.8,12.958,12.958,0,0,0,6.336-3.419,15.822,15.822,0,0,0,5.318-11.886c-.17-4.474-2.976-8.9-7.191-10.413s-9.55.456-11.287,4.583c-.784-2.344,1.229-5.51.747-7.936-.965-4.866-3.874-7.711-6.344-7.814" transform="translate(22.405 20.72)" fill="#263238"/>
        <path id="Trazado_807" data-name="Trazado 807" d="M243.372,264.419c4.82-8.4,6.2-19.6,7.419-29.28.573-4.558,1.583-11.047-1.525-13.9-3.328-3.055-3.648-7.764-7.472-10.12s-9.009-2.552-12.615.146" transform="translate(21.637 19.76)" fill="#263238"/>
        <path id="Trazado_808" data-name="Trazado 808" d="M220.561,280.74V267.555s-13.734-2.426-14.547-13.432-.528-36.419-.528-36.419a36.2,36.2,0,0,1,37.578,2.379l-.555,38.743.026,12.621-11.244,9.124-10.731,8.451Z" transform="translate(19.396 20.162)" fill="#ffbe9d"/>
        <path id="Trazado_809" data-name="Trazado 809" d="M217.383,241.448c1.833-2.36,4.823-3.305,7.286-1.665a6.52,6.52,0,0,1,2.089,7.994,8.21,8.21,0,0,1-5.223,4.1s4.946,9.02,8.091,11.41c3.747,2.849,5.508,4.251,10.132,4.8,4.545.541,4,.588,6.63-3.273a15.122,15.122,0,0,0,2.57-8.945q.21-12.176.419-24.351a35.9,35.9,0,0,0-.562-8.734,11.767,11.767,0,0,0-4.486-7.211c-2.6-1.754-5.888-1.9-8.846-2.873-3.7-1.221-6.844-3.741-10.307-5.555s-7.7-2.893-11.168-1.085c-2.488,1.3-4.151,3.869-6.57,5.3-3.443,2.034-8.14,1.589-9.8,6.828a9.137,9.137,0,0,0,.073,5.6c2.358,7.115,10.916,9.96,17.064,6.863.125,1.206-1.019,3.894.222,7.7.4,1.217.543,3.073,2.387,3.1" transform="translate(18.621 19.367)" fill="#263238"/>
        <path id="Trazado_810" data-name="Trazado 810" d="M217.412,245.049c-.044.016-.042.208.149.475a1.578,1.578,0,0,0,1.191.61c1.2.112,2.712-1.218,2.757-3.047a3.246,3.246,0,0,0-.79-2.327,3.171,3.171,0,0,0-1.673-.987c-1.1-.233-1.731.186-1.685.258.027.125.656-.054,1.539.277a2.754,2.754,0,0,1,1.847,2.744,2.54,2.54,0,0,1-2,2.526c-.893.058-1.256-.6-1.334-.529" transform="translate(20.521 22.631)" fill="#eb996e"/>
        <path id="Trazado_811" data-name="Trazado 811" d="M270.294,239.306a3.327,3.327,0,0,1-.312,1.034,11.656,11.656,0,0,1-1.462,2.562,12.814,12.814,0,0,1-8.172,5.011,12.576,12.576,0,0,1-9.278-2.4,11.361,11.361,0,0,1-2.124-2.047,3.341,3.341,0,0,1-.588-.906,23.1,23.1,0,0,0,2.946,2.624,12.705,12.705,0,0,0,8.957,2.163,12.974,12.974,0,0,0,7.942-4.7,24.39,24.39,0,0,0,2.091-3.349" transform="translate(23.448 22.593)" fill="#455a64"/>
        <path id="Trazado_812" data-name="Trazado 812" d="M268.748,237.679a2.619,2.619,0,0,1-.382.846,12.12,12.12,0,0,1-1.485,2.048,13.743,13.743,0,0,1-7.114,4.243,13.45,13.45,0,0,1-8.245-.778,11.635,11.635,0,0,1-2.205-1.239c-.482-.353-.72-.583-.7-.611.059-.09,1.1.731,3.056,1.476a13.973,13.973,0,0,0,7.967.6,14.324,14.324,0,0,0,6.945-3.962c1.458-1.5,2.072-2.675,2.161-2.619" transform="translate(23.472 22.44)" fill="#455a64"/>
        <path id="Trazado_813" data-name="Trazado 813" d="M253.6,252.646a1.757,1.757,0,0,1-.456.253,5.113,5.113,0,0,1-1.448.382,7.855,7.855,0,0,1-5.242-1.446c-2-1.283-3.639-3.663-4.934-6.413-1.336-2.74-2.4-5.954-4.475-8.725a10.48,10.48,0,0,0-3.755-3.208,13.376,13.376,0,0,0-4.494-1.184c-2.989-.3-5.752-.106-8.057-.422a12.932,12.932,0,0,1-5.218-1.626,8.054,8.054,0,0,1-1.192-.9c-.244-.24-.364-.37-.351-.384.038-.045.544.472,1.654,1.092a13.5,13.5,0,0,0,5.152,1.415c2.267.266,5,.023,8.066.3a13.725,13.725,0,0,1,4.685,1.2,10.952,10.952,0,0,1,3.964,3.366c2.154,2.877,3.2,6.13,4.495,8.842a15.149,15.149,0,0,0,4.687,6.307,7.858,7.858,0,0,0,4.994,1.557,9.39,9.39,0,0,0,1.925-.414" transform="translate(20.202 21.618)" fill="#455a64"/>
        <path id="Trazado_814" data-name="Trazado 814" d="M252.566,248.779a1.572,1.572,0,0,1-.49.048,5.455,5.455,0,0,1-1.406-.178,8.872,8.872,0,0,1-4.277-2.9,16.649,16.649,0,0,1-2.056-2.948c-.63-1.128-1.2-2.373-1.839-3.658a25.243,25.243,0,0,0-2.24-3.85,11.456,11.456,0,0,0-1.561-1.72,7.605,7.605,0,0,0-.948-.709,5.5,5.5,0,0,0-1.022-.626,12.869,12.869,0,0,0-4.522-1.329,34.625,34.625,0,0,0-4.466-.23,61.1,61.1,0,0,1-7.657-.2A13.71,13.71,0,0,1,215.125,229a9.383,9.383,0,0,1-1.169-.789c-.257-.193-.386-.3-.373-.316.033-.047.587.346,1.645.908a14.506,14.506,0,0,0,4.9,1.28,68.06,68.06,0,0,0,7.607.078,33.923,33.923,0,0,1,4.54.2,13.286,13.286,0,0,1,4.717,1.379,5.962,5.962,0,0,1,1.081.662,8.319,8.319,0,0,1,1,.754,11.928,11.928,0,0,1,1.633,1.812,25.091,25.091,0,0,1,2.262,3.952c.627,1.3,1.182,2.546,1.782,3.66a16.835,16.835,0,0,0,1.947,2.913,9.008,9.008,0,0,0,4.033,2.945,13.727,13.727,0,0,0,1.835.344" transform="translate(20.165 21.515)" fill="#455a64"/>
        <path id="Trazado_815" data-name="Trazado 815" d="M251.984,253.683c-.025.025-.25-.148-.605-.51a10.912,10.912,0,0,1-1.331-1.694,13.478,13.478,0,0,1-.54-13.647,11.05,11.05,0,0,1,1.19-1.8c.325-.391.534-.58.561-.557.079.06-.635.926-1.391,2.535a14.234,14.234,0,0,0,.524,13.257c.882,1.542,1.666,2.346,1.591,2.413" transform="translate(23.406 22.232)" fill="#e8505b"/>
      </g>
    </g>
  </g>
</svg>
