<svg id="Grupo_6" data-name="Grupo 6" xmlns="http://www.w3.org/2000/svg" width="36.001" height="36" viewBox="0 0 36.001 36">
  <rect id="Rectángulo_10" data-name="Rectángulo 10" width="36" height="36" transform="translate(0.001)" fill="#f5f5f5" opacity="0"/>
  <path id="carrito-de-compras" d="M32.473,35.988H10.536a1.828,1.828,0,1,1,0-3.655H28.818c2.592,0,7.565-9.567,8.838-13.75a.6.6,0,0,0,.047-.155,5.335,5.335,0,0,0,.258-1.335,2.939,2.939,0,0,0-3.048-3.048H8.229l-.767-2.609A.61.61,0,0,0,6.877,11H2.611a.61.61,0,1,0,0,1.219H6.42l5.558,18.9H10.532a3.614,3.614,0,0,0-1.491.368A2.826,2.826,0,0,0,7.485,34.16a2.939,2.939,0,0,0,3.048,3.048h2.455a3.019,3.019,0,0,0-.627,1.83,3.048,3.048,0,0,0,6.1,0,3.019,3.019,0,0,0-.627-1.83h7.356a3.019,3.019,0,0,0-.627,1.83,3.048,3.048,0,0,0,6.1,0,3.019,3.019,0,0,0-.627-1.83h2.445a.61.61,0,0,0,0-1.22Zm-3.655-4.875H13.249L9.663,18.922H36.306C34.883,23,30.366,31.114,28.818,31.114ZM34.91,15.264a1.739,1.739,0,0,1,1.832,1.829,3.087,3.087,0,0,1-.079.61H9.3l-.717-2.439Zm-19.5,25.6a1.829,1.829,0,1,1,1.829-1.829A1.831,1.831,0,0,1,15.409,40.866Zm12.2,0a1.829,1.829,0,1,1,1.829-1.829A1.831,1.831,0,0,1,27.607,40.866Z" transform="translate(-2.001 -8.998)" fill="#434f5f"/>
</svg>
