<svg id="Grupo_6" data-name="Grupo 6" xmlns="http://www.w3.org/2000/svg" width="36" height="36" viewBox="0 0 36 36">
  <rect id="Rectángulo_10" data-name="Rectángulo 10" width="36" height="36" fill="#f5f5f5" opacity="0"/>
  <path id="usuario" d="M30.406,22.182c-.007-.008-.009-.019-.017-.027a.581.581,0,0,0-.2-.133,11.323,11.323,0,0,0-1.343-.83,8.818,8.818,0,0,0,2.56-6.216v-4.13a8.844,8.844,0,0,0-17.689,0v4.13a8.814,8.814,0,0,0,2.561,6.215,11.27,11.27,0,0,0-1.343.83.587.587,0,0,0-.2.133c-.008.008-.01.019-.018.027C11.013,24.966,9,30.033,9,36.789v.59H36.123v-.59c0-6.757-2.013-11.823-5.717-14.608Zm-7.844,1.639a8.789,8.789,0,0,0,5.31-1.788A10.563,10.563,0,0,1,29,22.641a9.951,9.951,0,0,1-12.872,0,10.669,10.669,0,0,1,1.127-.608,8.786,8.786,0,0,0,5.309,1.788ZM14.9,10.846a7.665,7.665,0,0,1,15.33,0v4.13a7.665,7.665,0,1,1-15.33,0ZM10.185,36.2c.079-4.452,1.1-9.8,4.951-12.862a11.115,11.115,0,0,0,14.852,0c3.849,3.066,4.872,8.411,4.951,12.862Z" transform="translate(-4.562 -1.69)" fill="#434f5f"/>
</svg>
