<svg id="Grupo_7" data-name="Grupo 7" xmlns="http://www.w3.org/2000/svg" width="36" height="36" viewBox="0 0 36 36">
  <rect id="Rectángulo_10" data-name="Rectángulo 10" width="36" height="36" fill="#f5f5f5" opacity="0"/>
  <g id="regalo" transform="translate(0 2)">
    <path id="Trazado_2" data-name="Trazado 2" d="M35.919,22.66a2.385,2.385,0,0,0-1.946-1.727V7.254h1.192a.6.6,0,0,0,.6-.6V.7a.6.6,0,0,0-.6-.6H8.94a.6.6,0,0,0-.6.6v5.96a.6.6,0,0,0,.6.6h1.192v11.92h-.6A7.675,7.675,0,0,0,5.364,20.4V17.386a.6.6,0,0,0-.6-.6H.6a.6.6,0,0,0-.6.6V31.094a.6.6,0,0,0,.6.6H4.768a.6.6,0,0,0,.6-.6V28.086a7.683,7.683,0,0,0,4.172,1.221h9.787a7.848,7.848,0,0,0,2.008-.265l12.9-3.457a2.393,2.393,0,0,0,1.684-2.924ZM9.536,1.293H34.569V6.062H9.536Zm1.788,5.96H32.781V21.036l-6.917,1.855a2.4,2.4,0,0,0-1.576-1.384l-8.031-2.154a5.417,5.417,0,0,0-1.386-.179H11.324ZM4.172,30.5H1.192V17.982h2.98Zm29.754-6.065-12.9,3.457a6.634,6.634,0,0,1-1.7.224H9.536A6.511,6.511,0,0,1,5.6,26.8l-.238-.179V21.856l.238-.179a6.507,6.507,0,0,1,3.934-1.311h5.334a4.212,4.212,0,0,1,1.079.14l8.028,2.152a1.2,1.2,0,0,1,.876,1.026.582.582,0,0,0,.024.072.588.588,0,0,0-.016.078,1.016,1.016,0,0,1-.039.287A1.192,1.192,0,0,1,23.674,25a1.176,1.176,0,0,1-.311-.039L18.3,23.605a.6.6,0,1,0-.309,1.151l5.066,1.359a2.424,2.424,0,0,0,.62.08,2.38,2.38,0,0,0,2.294-1.751,2.135,2.135,0,0,0,.068-.365L33.3,22.13c.052-.013.108-.026.161-.035a1.192,1.192,0,0,1,1.3.877,1.164,1.164,0,0,1,.039.309,1.192,1.192,0,0,1-.882,1.153Zm0,0" transform="translate(0 -0.101)" fill="#434f5f"/>
    <path id="Trazado_3" data-name="Trazado 3" d="M248.559,113.22h5.591a.559.559,0,1,0,0-1.118h-5.591a.559.559,0,0,0,0,1.118Zm0,0" transform="translate(-229.24 -103.737)" fill="#434f5f"/>
  </g>
</svg>
