<svg xmlns="http://www.w3.org/2000/svg" width="36" height="36" viewBox="0 0 36 36">
  <g id="Grupo_6" data-name="Grupo 6" transform="translate(-34 -21)">
    <rect id="Rectángulo_10" data-name="Rectángulo 10" width="36" height="36" transform="translate(34 21)" fill="#f5f5f5" opacity="0"/>
    <g id="inventario" transform="translate(9.511 21.6)">
      <path id="Trazado_684" data-name="Trazado 684" d="M57.55,29.3a.51.51,0,0,0,.51-.51V26.608a.51.51,0,0,0-.51-.51H53.486V18.926a.51.51,0,0,0-.51-.51H43.727a.51.51,0,0,0-.51.51v.319l-.756-.325a3.016,3.016,0,0,1-1.789-2.353l-.288-2.114a5.837,5.837,0,0,0,2.43-4.739V6.632l-1.02.479v2.6a4.821,4.821,0,0,1-9.642,0V5.841a4.821,4.821,0,0,1,9.642,0v1.27a.51.51,0,0,0,1.02,0V5.841a5.841,5.841,0,0,0-11.681,0V9.714a5.837,5.837,0,0,0,2.43,4.739l-.288,2.114a3.016,3.016,0,0,1-1.789,2.352l-2.136.917a4,4,0,0,0-2.407,4.151l.69,6.025a2.114,2.114,0,0,0,2.1,1.874h1.676a.51.51,0,0,0,0-1.02H29.735a1.1,1.1,0,0,1-1.088-.97l-.69-6.025a2.983,2.983,0,0,1,1.8-3.1l2.136-.917a4.041,4.041,0,0,0,2.4-3.152l.23-1.693a5.838,5.838,0,0,0,4.915,0l.23,1.693a4.041,4.041,0,0,0,2.4,3.152l1.158.5V26.1H39.052a.51.51,0,0,0-.51.51v4.26h-5.16a.51.51,0,0,0,0,1.02h5.16v2.4a.51.51,0,0,0,.51.51h18.5a.51.51,0,0,0,.51-.51V30.766a.51.51,0,1,0-1.02,0v3.015h-8.23V27.118H51.54v1.707a.9.9,0,0,0,.9.9h.973a.9.9,0,0,0,.9-.9V27.118H57.04V28.8a.51.51,0,0,0,.51.51Zm-8.833-9.869v1.586h-.732V19.435Zm-4.48,0h2.729v1.707a.9.9,0,0,0,.9.9h.973a.9.9,0,0,0,.9-.9V19.435h2.729V26.1H44.237Zm-.926,7.683h.731V28.7h-.731Zm4.48,6.663H39.562V27.118h2.729v1.707a.9.9,0,0,0,.9.9h.973a.9.9,0,0,0,.9-.9V27.118h2.729v6.663Zm5.5-5.077H52.56V27.118h.731Z" transform="translate(0)" fill="#434f5f"/>
    </g>
  </g>
</svg>
