<svg id="Grupo_6" data-name="Grupo 6" xmlns="http://www.w3.org/2000/svg" width="36" height="36" viewBox="0 0 36 36">
  <rect id="Rectángulo_10" data-name="Rectángulo 10" width="36" height="36" fill="#f5f5f5" opacity="0"/>
  <path id="depositar" d="M26.825,19.192h-.787a3.151,3.151,0,0,0-3.214-2.668c-1.591,0-2.207,1.39-2.648,2.668H16.382a1.871,1.871,0,0,1,1.995-1.482.593.593,0,0,0,0-1.186,3.062,3.062,0,0,0-3.2,2.668h-.8a.593.593,0,1,0,0,1.186h.8a3.063,3.063,0,0,0,3.2,2.668c1.591,0,2.207-1.39,2.648-2.668h3.805a2.039,2.039,0,0,1-2.01,1.482.593.593,0,0,0,0,1.186,3.151,3.151,0,0,0,3.214-2.668h.788a.593.593,0,0,0,0-1.186Zm-4-1.482a2.011,2.011,0,0,1,2.008,1.482H21.438C21.793,18.259,22.149,17.71,22.823,17.71Zm-4.446,4.15a1.88,1.88,0,0,1-1.99-1.482h3.374C19.407,21.31,19.051,21.859,18.377,21.859Zm15.265-2.077V4.964A2.858,2.858,0,0,0,30.678,2H10.522C8.178,2,7.558,3.551,7.558,4.371V19.783H4V26.9H37.2V19.783ZM13.449,3.186h14.3a5.343,5.343,0,0,0,4.708,4.708V25.706H27.987a9.485,9.485,0,1,0-14.774,0H8.744V7.311a4.776,4.776,0,0,0,4.705-4.125Zm1.358,22.52a8.3,8.3,0,1,1,11.587,0ZM32.456,4.964V6.7a4.151,4.151,0,0,1-3.509-3.509h1.727a1.692,1.692,0,0,1,1.782,1.778ZM10.522,3.186h1.73a3.622,3.622,0,0,1-3.508,2.93V4.38c.006-.2.119-1.194,1.778-1.194ZM5.189,20.968h2.37V25.71H5.189ZM36.012,25.71h-2.37V20.968h2.37ZM24.8,31.641H23.022V28.677a.592.592,0,0,0-.593-.593H17.685a.593.593,0,0,0-.593.593v2.964H15.315a.593.593,0,0,0-.419,1.012L19.638,37.4a.593.593,0,0,0,.838,0l4.743-4.743a.593.593,0,0,0-.419-1.012Zm-4.743,4.5-3.311-3.311h.938a.593.593,0,0,0,.593-.593V29.27h3.559v2.964a.592.592,0,0,0,.593.593h.939Z" transform="translate(-2.807 -2)" fill="#434f5f"/>
</svg>
