<svg id="Grupo_6" data-name="Grupo 6" xmlns="http://www.w3.org/2000/svg" width="36" height="36" viewBox="0 0 36 36">
  <rect id="Rectángulo_10" data-name="Rectángulo 10" width="36" height="36" fill="#f5f5f5" opacity="0"/>
  <path id="buscar" d="M16.125,4.354A11.771,11.771,0,1,0,27.9,16.125,11.784,11.784,0,0,0,16.125,4.354Zm0,22.364A10.6,10.6,0,0,1,5.561,16.713H10.24a.589.589,0,0,0,.49-.262l1.791-2.688L15.6,19.919a.589.589,0,0,0,.458.321.522.522,0,0,0,.068,0,.587.587,0,0,0,.452-.212l2.766-3.319h3.844a.589.589,0,1,0,0-1.177h-4.12a.588.588,0,0,0-.452.212l-2.366,2.84L13.121,12.33a.589.589,0,0,0-1.016-.064l-2.179,3.27H5.561A10.587,10.587,0,1,1,16.125,26.718ZM34.377,33.4l-7.312-8.358a14.124,14.124,0,1,0-3.548,3.108l7.315,8.358A2.357,2.357,0,0,0,34.377,33.4Zm-31.2-17.28A12.948,12.948,0,1,1,16.125,29.072,12.962,12.962,0,0,1,3.177,16.125Zm30.2,19.721a1.223,1.223,0,0,1-1.664-.109L24.5,27.491a14.245,14.245,0,0,0,1.776-1.558l7.214,8.247A1.186,1.186,0,0,1,33.381,35.845Z" transform="translate(-0.479 -1.656)" fill="#434f5f"/>
</svg>
