<svg xmlns="http://www.w3.org/2000/svg" width="36.011" height="36" viewBox="0 0 36.011 36">
  <g id="Grupo_7" data-name="Grupo 7" transform="translate(-33.989 -21)">
    <rect id="Rectángulo_10" data-name="Rectángulo 10" width="36" height="36" transform="translate(34 21)" fill="#f5f5f5" opacity="0"/>
    <g id="Page-1" transform="translate(33.99 21.495)">
      <g id="_020---Teamwork" data-name="020---Teamwork" transform="translate(-0.001 -0.001)">
        <path id="Shape" d="M34.178,3.344a2.053,2.053,0,0,0-1.2.246,2.02,2.02,0,0,0-2.9-1.176,2.019,2.019,0,0,0-3.657-.439,2,2,0,0,0-3.013.775H17.66a.589.589,0,0,1-.3-.086L15,1.253A1.757,1.757,0,0,0,14.1,1H5.459A2.1,2.1,0,0,0,3.344,2.832a2.056,2.056,0,0,0,.246,1.2,2.018,2.018,0,0,0-1.176,2.9,2.02,2.02,0,0,0-.439,3.658,2.058,2.058,0,0,0-.382,1.413,2.036,2.036,0,0,0,1.157,1.6v5.744a.584.584,0,0,1-.086.3L1.24,22.023a1.816,1.816,0,0,0-.24.888v8.641a2.106,2.106,0,0,0,1.833,2.115,2.072,2.072,0,0,0,1.2-.246,2.019,2.019,0,0,0,2.9,1.176,2.036,2.036,0,0,0,1.943,1.415,1.994,1.994,0,0,0,1.714-.975,2.006,2.006,0,0,0,3.015-.776H19.35a.589.589,0,0,1,.3.086l2.359,1.413a1.757,1.757,0,0,0,.9.251h8.641a2.1,2.1,0,0,0,2.115-1.832,2.056,2.056,0,0,0-.246-1.2,2.018,2.018,0,0,0,1.176-2.9,2.019,2.019,0,0,0,.439-3.657,2.058,2.058,0,0,0,.382-1.413,2.036,2.036,0,0,0-1.157-1.6V17.659a.6.6,0,0,1,.086-.3L35.759,15a1.759,1.759,0,0,0,.251-.9V5.459a2.106,2.106,0,0,0-1.833-2.115ZM2.171,8.972A.875.875,0,0,1,3.042,8H6.835a.584.584,0,1,0,0-1.167H4.209a.875.875,0,0,1-.872-.969.93.93,0,0,1,.956-.782H8A.584.584,0,1,0,8,3.917H5.376A.875.875,0,0,1,4.5,2.949a.93.93,0,0,1,.956-.782H14.1a.584.584,0,0,1,.3.086l2.36,1.413a1.763,1.763,0,0,0,.9.251h5.513V9.1l-1.011-.827a1.94,1.94,0,0,0-2.516.138,1.838,1.838,0,0,0-.457,1.921H17.234a1.751,1.751,0,0,0-1.225.508L10.517,16.29l-.012.012-.243.24a.724.724,0,0,1-1.08-.959l1.6-1.961a.584.584,0,0,0-.452-.953H3.709a.93.93,0,0,1-.954-.781.875.875,0,0,1,.871-.969H6.835a.584.584,0,1,0,0-1.167H3.125a.93.93,0,0,1-.954-.78ZM25.508,20.056,20.18,25.339a.574.574,0,0,1-.4.168H16.954l-5.283-5.325a.575.575,0,0,1-.169-.4V16.953l5.326-5.281a.574.574,0,0,1,.4-.169h2.824l5.283,5.325a.578.578,0,0,1,.167.4Zm-13.624,14.2a.865.865,0,0,1-.674-.219.883.883,0,0,1-.29-.651V30.176a.584.584,0,1,0-1.167,0v3.711a.934.934,0,0,1-.788.954.86.86,0,0,1-.672-.219A.882.882,0,0,1,8,33.969V30.176a.584.584,0,1,0-1.167,0v2.633a.875.875,0,0,1-.969.865.93.93,0,0,1-.782-.955V29.009a.584.584,0,1,0-1.167,0V31.64a.875.875,0,0,1-.968.867.93.93,0,0,1-.783-.955V22.911a.623.623,0,0,1,.08-.3l1.42-2.361a1.768,1.768,0,0,0,.251-.9V13.837H9.1l-.828,1.011a1.88,1.88,0,0,0,2.06,2.973v1.956A1.751,1.751,0,0,0,10.844,21l5.442,5.485.02.02.237.239a.724.724,0,0,1-.518,1.231.7.7,0,0,1-.438-.151l-1.96-1.6a.584.584,0,0,0-.958.452V33.3a.934.934,0,0,1-.787.954Zm22.956-6.217a.875.875,0,0,1-.871.97H30.176a.584.584,0,0,0,0,1.167H32.8a.875.875,0,0,1,.872.969.93.93,0,0,1-.956.782H29.009a.584.584,0,0,0,0,1.167h2.626a.875.875,0,0,1,.872.969.93.93,0,0,1-.956.782H22.91a.583.583,0,0,1-.3-.086l-2.36-1.413a1.763,1.763,0,0,0-.9-.251H13.837V27.905l1.011.827a1.934,1.934,0,0,0,2.516-.138,1.838,1.838,0,0,0,.459-1.92h1.955A1.751,1.751,0,0,0,21,26.167l5.49-5.444.02-.02.237-.233a.724.724,0,0,1,1.08.959l-1.6,1.961a.584.584,0,0,0,.45.952H33.3a.93.93,0,0,1,.954.781.875.875,0,0,1-.871.969H30.176a.584.584,0,0,0,0,1.167h3.711a.93.93,0,0,1,.952.78Zm0-13.938a.589.589,0,0,1-.086.3l-1.414,2.36a1.762,1.762,0,0,0-.251.9v5.514H27.905l.828-1.011a1.888,1.888,0,0,0-.139-2.514,1.921,1.921,0,0,0-1.919-.442V17.233a1.751,1.751,0,0,0-.508-1.225l-5.444-5.493-.011-.011-.241-.243a.712.712,0,0,1,.007-1.021.74.74,0,0,1,.952-.058l1.96,1.6a.584.584,0,0,0,.951-.45V3.709a.93.93,0,0,1,.782-.954.875.875,0,0,1,.969.871V6.835a.584.584,0,1,0,1.167,0V3.126a.93.93,0,0,1,.782-.954.875.875,0,0,1,.969.871V6.835a.584.584,0,1,0,1.167,0V4.209a.875.875,0,0,1,.969-.872.93.93,0,0,1,.782.955V8a.584.584,0,1,0,1.167,0V5.376a.875.875,0,0,1,.969-.872.93.93,0,0,1,.782.955Z" transform="translate(-0.999 -0.999)" fill="#434f5f"/>
      </g>
    </g>
  </g>
</svg>
